<mxfile host="app.diagrams.net" agent="Mozilla/5.0 (Windows NT 10.0; Win64; x64; rv:129.0) Gecko/20100101 Firefox/129.0" version="24.7.7">
  <diagram name="Page-1" id="PE1UvSM8NLKfxEGbvpJ8">
    <mxGraphModel dx="2049" dy="1113" grid="1" gridSize="10" guides="1" tooltips="1" connect="1" arrows="1" fold="1" page="1" pageScale="1" pageWidth="827" pageHeight="1169" math="1" shadow="0">
      <root>
        <mxCell id="0" />
        <mxCell id="1" parent="0" />
        <mxCell id="VGW-gERCkuLHL1JLUqx4-3" value="&lt;div style=&quot;font-size: 20px;&quot;&gt;\(\text{Matching Cost}\)&lt;/div&gt;&lt;div style=&quot;font-size: 20px;&quot;&gt;\(\text{Computation}\)&lt;/div&gt;" style="rounded=1;whiteSpace=wrap;html=1;fontSize=20;" vertex="1" parent="1">
          <mxGeometry x="440" y="273.34" width="170" height="60" as="geometry" />
        </mxCell>
        <mxCell id="VGW-gERCkuLHL1JLUqx4-5" value="\(\text{Cost Aggregation}\)" style="rounded=1;whiteSpace=wrap;html=1;fontSize=20;" vertex="1" parent="1">
          <mxGeometry x="1020" y="273.34" width="190" height="60" as="geometry" />
        </mxCell>
        <mxCell id="VGW-gERCkuLHL1JLUqx4-6" value="&lt;div style=&quot;font-size: 20px;&quot;&gt;\(\text{Disparity}\)&lt;/div&gt;&lt;div style=&quot;font-size: 20px;&quot;&gt;\(\text{Computation}\)&lt;/div&gt;" style="rounded=1;whiteSpace=wrap;html=1;fontSize=20;" vertex="1" parent="1">
          <mxGeometry x="1344" y="499.5" width="160" height="60" as="geometry" />
        </mxCell>
        <mxCell id="VGW-gERCkuLHL1JLUqx4-8" value="&lt;div style=&quot;font-size: 20px;&quot;&gt;\(\text{Disparity}\)&lt;/div&gt;&lt;div style=&quot;font-size: 20px;&quot;&gt;\(\text{Refinement}\)&lt;/div&gt;" style="rounded=1;whiteSpace=wrap;html=1;fontSize=20;" vertex="1" parent="1">
          <mxGeometry x="739" y="499.5" width="170" height="60" as="geometry" />
        </mxCell>
        <mxCell id="VGW-gERCkuLHL1JLUqx4-10" value="" style="shape=cube;whiteSpace=wrap;html=1;boundedLbl=1;backgroundOutline=1;darkOpacity=0.05;darkOpacity2=0.1;size=47;" vertex="1" parent="1">
          <mxGeometry x="699" y="202" width="250" height="217" as="geometry" />
        </mxCell>
        <mxCell id="VGW-gERCkuLHL1JLUqx4-12" value="" style="endArrow=none;html=1;rounded=0;strokeWidth=2;" edge="1" parent="1">
          <mxGeometry width="50" height="50" relative="1" as="geometry">
            <mxPoint x="746" y="299" as="sourcePoint" />
            <mxPoint x="699" y="252" as="targetPoint" />
          </mxGeometry>
        </mxCell>
        <mxCell id="VGW-gERCkuLHL1JLUqx4-22" value="&lt;font style=&quot;font-size: 20px;&quot;&gt;\(\text{Cost Volume }C_V\)&lt;/font&gt;" style="text;html=1;strokeColor=none;fillColor=none;align=center;verticalAlign=middle;whiteSpace=wrap;rounded=0;" vertex="1" parent="1">
          <mxGeometry x="726" y="152" width="170" height="30" as="geometry" />
        </mxCell>
        <mxCell id="VGW-gERCkuLHL1JLUqx4-23" value="\(\text{Disparities}\)" style="text;html=1;strokeColor=none;fillColor=none;align=center;verticalAlign=middle;whiteSpace=wrap;rounded=0;" vertex="1" parent="1">
          <mxGeometry x="799" y="232" width="70" height="15" as="geometry" />
        </mxCell>
        <mxCell id="VGW-gERCkuLHL1JLUqx4-25" value="" style="endArrow=none;html=1;rounded=0;strokeWidth=2;" edge="1" parent="1">
          <mxGeometry width="50" height="50" relative="1" as="geometry">
            <mxPoint x="746" y="339" as="sourcePoint" />
            <mxPoint x="699" y="292" as="targetPoint" />
          </mxGeometry>
        </mxCell>
        <mxCell id="VGW-gERCkuLHL1JLUqx4-26" value="" style="endArrow=none;html=1;rounded=0;strokeWidth=2;" edge="1" parent="1">
          <mxGeometry width="50" height="50" relative="1" as="geometry">
            <mxPoint x="746" y="299" as="sourcePoint" />
            <mxPoint x="949" y="299" as="targetPoint" />
          </mxGeometry>
        </mxCell>
        <mxCell id="VGW-gERCkuLHL1JLUqx4-27" value="" style="endArrow=none;html=1;rounded=0;strokeWidth=2;" edge="1" parent="1">
          <mxGeometry width="50" height="50" relative="1" as="geometry">
            <mxPoint x="746" y="339" as="sourcePoint" />
            <mxPoint x="949" y="339" as="targetPoint" />
          </mxGeometry>
        </mxCell>
        <mxCell id="VGW-gERCkuLHL1JLUqx4-28" value="\(\text{Columns}\)" style="text;html=1;align=center;verticalAlign=middle;whiteSpace=wrap;rounded=0;rotation=45;" vertex="1" parent="1">
          <mxGeometry x="909" y="202" width="60" height="30" as="geometry" />
        </mxCell>
        <mxCell id="VGW-gERCkuLHL1JLUqx4-29" value="\(\text{Rows}\)" style="text;html=1;align=center;verticalAlign=middle;whiteSpace=wrap;rounded=0;rotation=-90;" vertex="1" parent="1">
          <mxGeometry x="659" y="302" width="60" height="10" as="geometry" />
        </mxCell>
        <mxCell id="VGW-gERCkuLHL1JLUqx4-30" value="" style="endArrow=none;html=1;rounded=1;strokeWidth=1;curved=0;strokeColor=#000099;" edge="1" parent="1">
          <mxGeometry width="50" height="50" relative="1" as="geometry">
            <mxPoint x="747" y="304" as="sourcePoint" />
            <mxPoint x="947" y="304" as="targetPoint" />
            <Array as="points">
              <mxPoint x="767" y="314" />
              <mxPoint x="787" y="304" />
              <mxPoint x="808" y="314" />
              <mxPoint x="828" y="334" />
              <mxPoint x="847" y="320" />
              <mxPoint x="867" y="320" />
              <mxPoint x="887" y="330" />
              <mxPoint x="907" y="314" />
              <mxPoint x="927" y="304" />
            </Array>
          </mxGeometry>
        </mxCell>
        <mxCell id="VGW-gERCkuLHL1JLUqx4-31" value="" style="shape=cube;whiteSpace=wrap;html=1;boundedLbl=1;backgroundOutline=1;darkOpacity=0.05;darkOpacity2=0.1;size=47;" vertex="1" parent="1">
          <mxGeometry x="1289" y="202" width="250" height="217" as="geometry" />
        </mxCell>
        <mxCell id="VGW-gERCkuLHL1JLUqx4-32" value="" style="endArrow=none;html=1;rounded=0;strokeWidth=2;" edge="1" parent="1">
          <mxGeometry width="50" height="50" relative="1" as="geometry">
            <mxPoint x="1336" y="299" as="sourcePoint" />
            <mxPoint x="1289" y="252" as="targetPoint" />
          </mxGeometry>
        </mxCell>
        <mxCell id="VGW-gERCkuLHL1JLUqx4-33" value="&lt;font style=&quot;font-size: 20px;&quot;&gt;\(\text{Cost Volume }C_V\)&lt;/font&gt;" style="text;html=1;strokeColor=none;fillColor=none;align=center;verticalAlign=middle;whiteSpace=wrap;rounded=0;" vertex="1" parent="1">
          <mxGeometry x="1316" y="152" width="170" height="30" as="geometry" />
        </mxCell>
        <mxCell id="VGW-gERCkuLHL1JLUqx4-34" value="\(\text{Disparities}\)" style="text;html=1;strokeColor=none;fillColor=none;align=center;verticalAlign=middle;whiteSpace=wrap;rounded=0;" vertex="1" parent="1">
          <mxGeometry x="1389" y="232" width="70" height="15" as="geometry" />
        </mxCell>
        <mxCell id="VGW-gERCkuLHL1JLUqx4-35" value="" style="endArrow=none;html=1;rounded=0;strokeWidth=2;" edge="1" parent="1">
          <mxGeometry width="50" height="50" relative="1" as="geometry">
            <mxPoint x="1336" y="339" as="sourcePoint" />
            <mxPoint x="1289" y="292" as="targetPoint" />
          </mxGeometry>
        </mxCell>
        <mxCell id="VGW-gERCkuLHL1JLUqx4-36" value="" style="endArrow=none;html=1;rounded=0;strokeWidth=2;" edge="1" parent="1">
          <mxGeometry width="50" height="50" relative="1" as="geometry">
            <mxPoint x="1336" y="299" as="sourcePoint" />
            <mxPoint x="1539" y="299" as="targetPoint" />
          </mxGeometry>
        </mxCell>
        <mxCell id="VGW-gERCkuLHL1JLUqx4-37" value="" style="endArrow=none;html=1;rounded=0;strokeWidth=2;" edge="1" parent="1">
          <mxGeometry width="50" height="50" relative="1" as="geometry">
            <mxPoint x="1336" y="339" as="sourcePoint" />
            <mxPoint x="1539" y="339" as="targetPoint" />
          </mxGeometry>
        </mxCell>
        <mxCell id="VGW-gERCkuLHL1JLUqx4-38" value="\(\text{Columns}\)" style="text;html=1;align=center;verticalAlign=middle;whiteSpace=wrap;rounded=0;rotation=45;" vertex="1" parent="1">
          <mxGeometry x="1499" y="202" width="60" height="30" as="geometry" />
        </mxCell>
        <mxCell id="VGW-gERCkuLHL1JLUqx4-39" value="\(\text{Rows}\)" style="text;html=1;align=center;verticalAlign=middle;whiteSpace=wrap;rounded=0;rotation=-90;" vertex="1" parent="1">
          <mxGeometry x="1249" y="302" width="60" height="10" as="geometry" />
        </mxCell>
        <mxCell id="VGW-gERCkuLHL1JLUqx4-41" value="" style="endArrow=none;html=1;rounded=1;strokeWidth=1;curved=0;strokeColor=#000099;" edge="1" parent="1">
          <mxGeometry width="50" height="50" relative="1" as="geometry">
            <mxPoint x="1338" y="302" as="sourcePoint" />
            <mxPoint x="1539" y="305" as="targetPoint" />
            <Array as="points">
              <mxPoint x="1358" y="308" />
              <mxPoint x="1378" y="302" />
              <mxPoint x="1399" y="305" />
              <mxPoint x="1419" y="342" />
              <mxPoint x="1439" y="302" />
              <mxPoint x="1459" y="305" />
              <mxPoint x="1479" y="306" />
              <mxPoint x="1498" y="312" />
              <mxPoint x="1518" y="302" />
            </Array>
          </mxGeometry>
        </mxCell>
        <mxCell id="VGW-gERCkuLHL1JLUqx4-43" value="" style="shape=flexArrow;endArrow=classic;html=1;rounded=0;width=11.515151515151516;endSize=5.624242424242424;endWidth=8.172635445362719;fillColor=#000099;" edge="1" parent="1">
          <mxGeometry width="50" height="50" relative="1" as="geometry">
            <mxPoint x="380" y="303.04" as="sourcePoint" />
            <mxPoint x="430" y="303.04" as="targetPoint" />
          </mxGeometry>
        </mxCell>
        <mxCell id="VGW-gERCkuLHL1JLUqx4-44" value="" style="shape=flexArrow;endArrow=classic;html=1;rounded=0;width=11.515151515151516;endSize=5.624242424242424;endWidth=8.172635445362719;fillColor=#000099;" edge="1" parent="1">
          <mxGeometry width="50" height="50" relative="1" as="geometry">
            <mxPoint x="620" y="303.04" as="sourcePoint" />
            <mxPoint x="670" y="303.04" as="targetPoint" />
          </mxGeometry>
        </mxCell>
        <mxCell id="VGW-gERCkuLHL1JLUqx4-45" value="" style="shape=flexArrow;endArrow=classic;html=1;rounded=0;width=11.515151515151516;endSize=5.624242424242424;endWidth=8.172635445362719;fillColor=#000099;" edge="1" parent="1">
          <mxGeometry width="50" height="50" relative="1" as="geometry">
            <mxPoint x="960" y="303.04" as="sourcePoint" />
            <mxPoint x="1010" y="303.04" as="targetPoint" />
          </mxGeometry>
        </mxCell>
        <mxCell id="VGW-gERCkuLHL1JLUqx4-46" value="" style="shape=flexArrow;endArrow=classic;html=1;rounded=0;width=11.515151515151516;endSize=5.624242424242424;endWidth=8.172635445362719;fillColor=#000099;" edge="1" parent="1">
          <mxGeometry width="50" height="50" relative="1" as="geometry">
            <mxPoint x="1216" y="302.75" as="sourcePoint" />
            <mxPoint x="1266" y="302.75" as="targetPoint" />
          </mxGeometry>
        </mxCell>
        <mxCell id="VGW-gERCkuLHL1JLUqx4-47" value="" style="shape=image;verticalLabelPosition=bottom;labelBackgroundColor=default;verticalAlign=top;aspect=fixed;imageAspect=0;image=data:image/jpeg,/9j/4AAQSkZJRgABAQAAAQABAAD/2wBDAAgGBgcGBQgHBwcJCQgKDBQNDAsLDBkSEw8UHRofHh0aHBwgJC4nICIsIxwcKDcpLDAxNDQ0Hyc5PTgyPC4zNDL/wAALCAF3AcIBAREA/8QAHwAAAQUBAQEBAQEAAAAAAAAAAAECAwQFBgcICQoL/8QAtRAAAgEDAwIEAwUFBAQAAAF9AQIDAAQRBRIhMUEGE1FhByJxFDKBkaEII0KxwRVS0fAkM2JyggkKFhcYGRolJicoKSo0NTY3ODk6Q0RFRkdISUpTVFVWV1hZWmNkZWZnaGlqc3R1dnd4eXqDhIWGh4iJipKTlJWWl5iZmqKjpKWmp6ipqrKztLW2t7i5usLDxMXGx8jJytLT1NXW19jZ2uHi4+Tl5ufo6erx8vP09fb3+Pn6/9oACAEBAAA/AOEoopaWilpaKWlpaKWlpaKWlopaWiiikpKKSkpKSg0lSpwop1LRTJ2laBYzI5iRiwjz8qk4yQPU4GfoPStHwnr0vhvxJaaim8xq2ydF/jjPDDGRk9xk4yAe1dD4w8f33ibfZwr9m0wSZWMfflAxjzDnHUZwOBnvgGuPopa734U3mkWviGVL9VW+mVUspXHCnkMoPZmyAPxGecH26mSxRzwvDNGskUilXRxkMDwQQeor5z8Y6LHoHim9sYWUwBhJEAwJVGGQp5JBGcc8kAHoRWFRRXW+EPAV/wCJpormZWt9K3Hfccbnx1VAep7ZxgYPUjB9ZuvAXh6XRJtNt9MtYC8bLHceXukjY8htxO44PbPTjpXhOtaLfaBqclhfxbJU5DDlZF7Mp7g//WOCCKz6ltrq4srhbi1nlgnTO2SJyrLkYOCOehqGqVLRRS0tLRS0tLRS0tFLS0UtLRS0tFJSUUlJSUUlJSVr6Jol9r+pRafYRb5m5ZjwqL3Zj2A/wAySBXs3hj4baTo1uJNQii1C9kjAk85A8SHOTsUj6DJ544xkiuF+IPgebQ7uXVbFN+mTSFmVVA+zMx+6QONmTgHt0PYnhKKaFCngYpaKKWkrqNP+JXiKz8SW1/qOoS3NqMRzQbFCtFnJwgwN47NweACccV3Pjf4lpZYsPDtzFLcHDSXibZEQddq9QxPc8gdOv3fIZZZJ5nmmkaSWRizu5yWJ5JJ7mmUUV9GeDvENj4g0GCS18qOWCNY57aNdghYDGAvZODt9uOoIHQV5p8Y9NV9GstUjigMsMwhkY4EjIwOADuGQDztwTySMANnx6iiqVFFLS0UtLS0UtLRS0tFLS0tFLS0UUlFJSUlBpKSkor0Dw38Qrfwv4Ye0g0mKTUzIwEwUIrJglTIw+ZyGJGOPl7iufj8c+I01yLV5NSlmuIuAj/6sqcbl2DAAO0ZxjkA9RmvfNN1LS/F2gNNbt51ncxtFLGTtZcjDI2DkHB9e4IOCDXzrqkFva6te29pL51tFO6RSbg29AxCnI4ORjkVUopK9R8H/AAtabZf+Io8QvHmOyDMr5Of9YRgrgYOAc884wQfQ9e8OWeu+HpNIZVgiCr5DJGP3JX7pUdh2wMcEjIzXzzq+lXWiatcabeBRPA2G2NkEEAgg+hBB9eecVSpCAeoBooqxZ2F5qMxhsrSe5lC7ikEZcgdM4HbkfnUUsUkEzwzRtHKjFXRxgqRwQQehpla3hzXrjw3rcGpW6+ZsyskRYqJEPVTj8x1wQDg4r2vxJ490zQNMtbmP/TJ7uNZbeBW2FozzvYkZUY6ZGSeMcEjxHW9f1LxDfNdajctIdxKRAny4gccIvYcD3OOcnmsyiiqVLRRS0tLRS0tLRS0tFLS0UtLRilpaKSkpKSikpKSigDLCpSAwwagKkNjFaVrquoWuk3Wlx3TLZXTK00GAVJUggjPQ8DOMZwM5xVWiitDQ9Wm0LW7TU4Bue3k3FeBvU8MuSDjIJGccZr2DVvivoNjpMNzZlr27mVWW0GUKAkg72wQpGDxyTxjg5rrdG1e117SLbU7IubedcrvXDAgkEEeoII9OOM1wXxc/sT+z4PP/AOQ1x9n8vG7y887/APY6477unG6vH6KK6fwp4G1LxRNvw1pYBSTdyRkhjyMIONxyDnBwMHPOAfcdE0DTfD1itrp1ssY2gPKQPMlIzy7dzyfYZ4wOK4L4leB4Xt5/EOmpslT57uFFJEgzzIAOhHVuxGTwQc+SUUlFFa2qeGtZ0W0t7rUdPlt4bj/Vs2DzjOGAOVOOxweD6GsmqYoopaWilpaWilpaWilpaKWlopaWiikpKKSkpKQ0UlKn36looorY0bwtrfiCKWbTLBp4omCs5dUGeuAWIyfp0yPUVj0VFNHuG4dRW94V8X6r4Yt76KykzHcx4RH5WOTI/eAEddoI9DxnO3FZdzdXF7cNcXU8s8743SSuWY4GBknnoKioorvfh141k0a+j0nUJ1GlzMdrytgW7nnIPZSeoPAJzkc59uqpqWpWmj6fLf383k20WN77S2MkAcAE9SK+adUnt7rVr24tIvKtpZ3eGPaF2IWJUYHAwMcCqtFS2ttNe3cNrbpvmnkWONcgbmY4AyeOpr3Dwf8ADyx0CJLq/jiutT7sTvjiIYkGMFQQcbeTyCOMd+p1fSrXW9JuNNvAxgnXDbGwQQQQQfUEA+nHOa8jl+D2uCZxDfac8QY7Gd3UkdiQFOD7ZP1rzClopaKWlpaKWlopaWlUZYD1NSzLhgccEVHRS0tLRS0lJRSUlJWhDEFgCkfeHNZ7KVYqeoOKbSGnJ96pKKK9I8F/DNtThj1LXN0do6pJBBG4zMpw2WIzhSOMcNyemOfW7aazDvY2skAa1VVeCJhmEEfKCo+6MDj2ryT4m+DF06aTX7EsYLiXNzEQT5btk7weyk+vQkY64Hm9FFJVvTtMvtWu1tdPtZbiZv4Y1zgZAyT0AyRyeBWz4m8Fap4Vht5r5oJY52Kh7cswUjBwxKjBPOPofSucorp/AXjCTwhqc0dwLibSrhSXhjIOyTjDgHvxg8jIIPO0CqXifxPfeKdTN1dHZEmVgt1OViX+pPGT39gABiUtFPilkgmSaGRo5UYMjocFSOQQR0NfQfgfxOvifQUlkOL23xFcqSuWbH38DoG57DkEds10tZX/AAlHh/8A6Dumf+Bcf+NfLtFFLS0tFLS0tFLS0VctLKS4guLkFVitlUsWONxLABR6t1OPRWPamTDK59KgpaWilpaKKSkpKSpIE3ygEcDk1oVn3S7Zz05GagpKfH3p9FFdKvxB8Q2nh6HR7W4SGGJSguFBM205+XcScAZABABG0YNZ/hfxRdeHvEyaq0jyiVit3uG9pY2YF+SfvcZBz1HPGa9w1fxr4btNDS7nuory3u4xst4gHeVGyD8hI44YHdjoR14r56oorY8M+HbrxPrKafbOsY2mSWVukaAgE47nkAD1PYZI978O+GdN8MWLW2noxMjbpJpCDJIe2SAOB2AGPxJJ0L6xtdSsprK9hWa3mXa8bdCP6HuCOQea+dPE3h268May+n3LrINvmRSr0kQkgHHY8EEeo7jBOPRRSV3fh74W6tq9v9pv5f7MiOQqSxFpSQRyUOMDr1OeOmDmuNvrG602+msr2FobiFtrxt1B/qO4I4I5qvWhomr3Gh6tb39u8o8uRTIkchTzUDAlCR2OPeul8XfEW+8QpHa2QlsbLy/3qLJ80rFcMGI6pyQB36nsBxNVKWilopaWlopaWilpavWt3Imn3FkAvlyyxysSOQUDgY9vnP6UxxlCKrUtFLS0UtJSUlBpKuWqbY8kct/KrFVL1eFbj0qlRT06Vv8AhnwnqXie+SK2iaO13ES3bIfLjAxkZ7tyML157DJD/F3hS48J6mltJN9ohlTfFOIygbsRjkZB7Angg98Vz9BAIwah8k7vapQABgdKWiir2kardaJqtvqNmVE8DZXeuQQQQQR6EEj154xXf6n8aZUuLT+ztKURBQ10ty3zE55WMqeBjPzEHOfujHPpo13S20P+2hexHTvL8zz88Y6dOuc8beueMZ4rxX4g+LofFGpwx2keLKz3rFIwIaUtjLY7D5Rgde564HH0UV638NfBumPb2/iCW7ivph/q4VX5beQH+LPJcDGOABnIz8rV6hXBfEXwVHrNlJq2nwMdUhUbkiXJuEHGCO7AdCOSBjB4x4jRRSVVopaKWlpaKWlopaWirMIATPrUlVSMMRRS0UtLRSUlFJSopdwo71oqAAAOg4painXfCwHXFZtJXY+DvDuj39pLq+u6tBbWFpKFe3LYkl+UtjrkA44wCWwwGCM1sa18U2tZorLwraQWlhbTEhjEAJ164CYGxSST/ePB+U5Fd866b8RvBQCyKgnVTlcO1tMMEjkDkdD0yp4wDmvCNS0640nU7nT7pds1vIUbggHHQjIBwRgg9wRVWikqW2tbi9uFt7WCWeZ87Y4kLM2Bk4A56A16dZ/CBpPDxe6vGi1h13JGCDDGeytgEk+pBwM8A458vlikgmeGaNo5EYq6OMFSOCCOxplMlj8xf9oVb/tC+bSYdMku5XsoZGljhLfKrHqQPz+mT6nNeiiiuu+H/iuPwxrEn2vd9gulCTFRkoQflfpkgZYEDsc8kAV7pp+oWmq2EN9YzpPbTLujkToR/QjoQeQRg1xHjT4kW+j/AGnTNJPnakvyNNgGOE85/wB5x6YwCeehWvFKKKKqUtFLS0UtLRS0tLRS1bUYUD0pajmhkVVmKMInJVXI4JGMgH1GR+YqKilpaKWkpKSkqzap1f8AAVaopDWZKuyVlxjB4qOpCu5B61Ea6zwL4zm8K6iUmaWTS5smaBAGIbHDLkgA5wDzyPXAxR8TeIrrxPrL6hcosYC+XFEvSNASQM9zyST6nsMAZFFJX0L4Y8M6J4W0wXdtJFIzQBptQdxh0+8WBzhU78dgMk4zWxpGs6frtiL3TLpLi3LFdygghh1BBwQfqOhB71wvxN8GNqEMmv2JUT28WbmIgDzEXJ3g92A9eoAx0wfHaKSiu48GfDu68QN9r1JZ7PTguUIXbJMSMgpkfd5B3YIPQdyLHxE8DQ6D5WpaTDKNPf5ZkyWEDcAHJOcN79D35Arz+itvTPF2uaPo8ulWN+8Vq7blAALRZB3BCfug5zx0IyMZOcSiiiiqtPklkmYPLI7sFVQWJJwAAB9AAAPYU2ilpaWilpaKWlpyDcwFWhS0yaSRoUiMjGNWLKmeATjJA9TtH5CoKWilpaKSkpKACSAOtaCKFUKOgp1FIapXi4kDcciq1S0xkyc0oAA4paKWipbrUr+bS4dOe6laxgkMkcBb5VY9Tj8/pk46nOv4E8Uv4W8QJNIc2NziK6UlsKufv4HUryeh4JAxnNdd46+I011LdaPo7xCz+aKW6Uh/PUrhlXIwBksMjOcAggdfNKWiu1+GVrol74ja31WDz7h4z9kjkQNESAS24euBxnjr3xXutMlijnheGaNZInUq6OMhgeCCD1FfPHjLw3/wi2vNYrP50MkYmhY/eCEkYbtkFT069eM4HP0UlbvhnwnqXie+SK2iaO13ES3bIfLjAxkZ7tyML157DJHscHw68OQaJJphs/M8zJN1JgzgnoQ+OMYHAGOOQcnPh+taLfaBqclhfxbJU5DDlXXsynuD/wDWOCCKz6q0tFLS0UtLS0UtLRUsI+Yn2qxRTJBlTUNFLS0UpptJQamtkyxb06VaFLRQarXa5iz3BqkOoqSikp8UUk8yQwxtJK7BURBksTwAAOpr1jwj8LYVt5LnxNBvlf5Y7RZSBGM/eZkPJPYA4A65J44/xz4Tm8OaxNJb2sqaTLIBbSMwYZ2glc9Rg5A3ckDvgmuVo7UxYwpJH/6qdRS0U+KWSCZJYZGjlRgyOhwVI5BBHQ13GlfFrWotesxqzW7acVWGcJFtOM8zZGTuHUgcEDAAJzXc+MPiDp+iWb21jN9p1CeDfC0BVki3AbXY8jodwGDnAzgEGvFdR1O+1a7a61C6luJz/FI2cDJOAOgGSeBwKq0UV9FeC9U0zVPDNu+k232W3h/ctb/88nABIz/F1zu75yeciugrhfif4cTVPDsmpwQqb6wXzCwHzPCM71zkdMlh16ED71eHVWopaKWlpaKWlopaWp4VwufWpaKQ1ARg4opaKWg0lJSVdjTYgH51JRRRTHXcjL6jFZoBDYPan0UV6H4Q1/wr4Y8MtqU0Pn67vcLGyguSAANhwfLQh+ScE/N97AFZcnxR12TxLDqTNizhkYrp6uVQoRghiOWOOQTnB5AA4r2N003xn4WAJZ7G/hVvlYBkOQRyMgMrDkcjIwc18/8AiDRpPD+u3WlyyrM0DDEijAYEBgcdjgjI9e561m0Uldh4P8AX3ibZeTN9m0wSYaQ/flAznyxjHUYyeBnvgivS9R+HWiTeGW0yzs4o7mOPMF02BIZADgu4GSCTyMYweAMDHhEsUkErxTRtHKjFXRxgqRwQQehplNdFcYYZpcYGKKKWiug8H+J5vC+tpdZlezk+W5gQj515weeMgnI6dxkAmvddQ8R6ZpmgrrNxcf6HJGrxED5pdwyoUHByR27d8AGvDPFXjPUvFcyC4CwWkTExW8ZOAecFj/E2DjPA64Aya5yq1LRS0tFLS0tFLS0VaQYUCpCpUDPcZpKSoH++aSlpaKDU1pCJ7lUYEr1OKbdRCG5dF6A8fzpsK7nz2FWxS0tJRTTVGVNszeh5plLRSMu4VARg4PWuk0HxfqmhaHqGl2kmyK7+ZJF4eF+AzKfdRj24IIxziyyyTzPNLI0ksjFndzksTySSepqNXViQrAkdQD0p1WtMu4bHU7a6ns4ryKKQM1vKTtkHocf/AFx6gjg+/Xvi/wAO6JoFrfm7iFlLHi0jgXJkCj7qqOmMY5wAcA4rW0vUrbWNKttRtG3QXEYdeQSM9QcEjIOQR2INcH8WtDtZtKi1vzFju4GWAh5MeahJ+VR3YEk9uN2c4FeO0UVq6D4c1PxJdtb6bb79mDLIx2pGCcZJ/PgZJwcA4r3Lwr4M03wrC5ty093KoEtzIBkjjIUfwrkZxyemScCuQ+JngqPyZPEGmQMJd268ijXgjnMuOx/vY65zxgk+T0U55ZJFjV5GZY12oGOQoyTgegySfqTTKKr0UtLRS1djh3aax46lx+H+TVOlpaKWnKMsB71aFWblMBSB7VXpDUcg6GmUUtLSVpaXFxJKf90f1/pUOq/8fK/7g/maZCu1B6nmpBS0tFJSGo5LWa42eSnmMZFjVFILszZwAvU9Ow9PUV0lloen+Fki1PxUFknaLzrTRxnzJDnAMvGEXvg9eePlKnq9b0qz8f8Agu01rR4Vt7uyiZBaooY4XrD8ozkYyg9G6Ddx5HU0NpNcQmaJQyBwhO8Dk57E5IGDnHT8RV61sri3YyR3k9tKSPmtn2nhgw5x6qp9iB6VOmn2ylv3QO7qGJYfkelTrGqKFVQqgYAAwAKdioWs7d5DI1vEznGWKAk49/wFRPpsDtkBl68KeP8AP+NULrRpS26FlYYOQ3B9vr+ldH4K8aXvgz7RZXVmZ7GXdIEBCssu0YIbuDhQeuOo6EHE1vX9R8Q3rXWoXDSEsSkYJ8uIHHCL2HA9zjnJ5rNoor0r4U+J4bK4k0G6MUcdzIZYJWJBMpCrs9OQBjpyMckivYKZLFHPC8M0ayROpV0cZDA8EEHqK+bfEsGmW3iO9h0aXzdPWTETbtw6DIB7gHIB5yAOT1rKop0UUk8yRQxtJLIwVEQZLE8AADqa6j/hW3i3/oE/+TMX/wAVXGUtFLS0ta7KUsip6iPHH0rJpaKWtC+09bOxsZtxMlwpZhngDgjHHoarQwyMjTCNzGhCs4HAJzgE+pwfyPpU6LucL6mrk67oT6jmqVFMcZWoqcFLHABPfiilpDW5aRmO1jU9cZOR681mXb+ffEY4T5fy/wDr04U6gUtFJSGpbTULvSrtL+xm8m6hyY5NobGQQeCCOhIrHllknmeaaRpJZGLO7nJYnkknua7P4davqGh3V7fR2zz6QgjW/EezemSwjZdzA/eJzjPBPGcVT11bfxDql5cPapbm8LMViO0Lhc5z03HbnP8AExxjLYpiRqiKiKFVRgADAAp+KXFLijFGKMUYqOSFJY2jkRXRhgqwyD+FZ82lKqfuCRgcKxzn8Tz+dUFt5nuFt0id5mYIsajLMx6AAdSav6r4f1XRIbWXUrNrZbpS0QdlyQMZyAcqfmHBwazKK7HwZ8QL/RfEG3W7+9vNOuV2MZZDIYWzw4BycDkEDHBzyQBU/jzx5J4ilbT9PZo9KRuT0NwR/EfRfQfiecAcPRRT4pZIJklikaOWNgyOhwVI5BB7GvT4vjNIIUE2hK8oUb2S62gnuQChwPbJ+teS0UtLRUsEfmzoh6E8/StqsR12SMuc7SRmkpaK6XxNbGGzsQgJihBjyTz0GP5GsGEcE1uWtrEmhm7kTM0tz5cLAn5VRcyAjpz5keOv3T07xEAgg9DWeRgkHqKSkNQ1taZYH7JJI5w0yFV46A96xqWpLePzbhEPQnn6Vu1mXKgXUh9cfypgpaWiikpDTTTLeA3U8STtK9vCQu0SYKpuJKqSDjOWPTGSTWxAjW+ni3S4byWlLm3DttDAAB8HjJBxkc8HpxSgU7FLijFLijFGKKKTFBFXNF1FtE1mHUo4IpZIwVIdRyp64P8ACfcfqCQfWr+00zxp4ZkjVllt5w3kzNGwMcgJUOAcHgg+mRkdDXgOtaLfaBqclhfxbJU5DDlXXsynuD/9Y4IIrPoooroNA8F634jw9na+XbH/AJeZyUj79DjLcgj5QcHrisS6tprO7mtbhNk0MjRyLkHawOCMjjqKioqvS0UtLVzT0JlZ9vAGM+9aVZV4my4bHRvmqGir2kQtNq1qq4yJA/PoOT/Kuk8TRvJpSlVyElDN7DBH8yK5eMYQCtgR+VYWgW681ZVaYxA8RMWKkYz1IRT24I9KZVKddsp44PNRmmmui0XSdCvPD95d3lzcf2lFMFitkcKrKQME/KSeQ+cEdAOMirKqFUAAADgAdq2NF0HwXNbNqGsX5SeNnM1rJcqqtxkFVHzngjoeSPwrZvdD+GkNlK7XFog243QXzyOpPAKqGbJGfQj14rhL7S9M07UW/srU/t9s8YZX2bSmeQp9SBtzwOSRgHiou1ULsAT5Hcc1CKWloooNJjPSmkYKgnG4hRn3rVtVt4rSaOSAtMxUxSrIRswTuyMYbIx6Yx1xxSilpaWlpcUYpKKMUmKKQit/wr4km0C/WN3zYTOBMjZwnbeMdx+oGPQh/wAUvEWiaslrZWUn2m8tpN/2iJg0QRl+ZQQcE5CHocYxnORXmtFFeheA/h5Hrtquraq7LYs37mGNsGXa2GLHsvBGBgnk5GBn2WKKOCFIYY1jiRQqIgwFA4AAHQVwHxM8IR6jp0mt2UKrfWy7rghtvmRKDkn1ZcD04BHOFFeL0VZ8tD1UH8KURp/cX8qdgAYApcUYqxCuE+pqWoJxnbUOKNtbHh2DddySkKQiYGeoJ9PwB/OtTW1DaVKSASCpGe3Irk8VqTTRzmN44FhUQxoVXoSqBS3TqSCT7nvUdV7peFb8KrYpcVvWFt9mt8MBvblv8Kt9qxdWjxco+AAy9fUj/IrPxWnaJstx6tzU9RS2F3dCSe3tppooUzK8cZYRjk5YjoOvX0NUKUDPSnBCaXy/U0uwelLtHoKXFaNxpyWcNmz4a5niE7DcD5at9wYHQlfm69HAwMcxAU6lpaWlFOxSGkoopMUUUhFZN3pqpteOUZdmzGQflxjnOMY5wB14NUWt5V6ofw5qPBoxXb/D3xmPDt01hfuq6XOxkZypJifb1G0EkHAGPoeOc+u/8JPoH/Qc0z/wLj/xqp4n8YaZ4Xtz9qk8y8aMvDap95+ccnooz3PocZIxXz1dT/arua48qKLzZGfy4l2omTnCjsB2FR4q0KdRS0VaQYQCnUyUZT6VBijFdHoEPl2bylcGRuDnqB/9fNWtUjMumTqMZC7ufY5/pXJBcnAq6BgYpajmXdGR+NVMGrmnWxlmEjfdQ5+prapaz9Wj3W6Pgkq3X0B/yKyY4zJIqjua1qKd/aeo6fCyWF5NbLIymTyXKMxAOORzjk8f4VTeNY5GRXWRVJAdc4YeoyAcfUCm4pcUYpMUVesNNa8t7u5a4it4LZMl35LOQdiKoOSSQfYAEnpywCnYpcUoFO2mjFKKcBQabRS7aNtNwRRSYqKeMvHhSAcjkjNVCpHUUxkVvvKD9RUTWkbHIBX6GoWsmA+VwT7jFRtbyrn5Mj2qJlKnDAg+4pMCjFa2qQeTqEnXDneMn16/rmqlFLSqNzAetWxS01hkEVXorsrWLyLWKLCgqoB29M96S9/48bj/AK5t/KuRjGXFWhRSGq6xl5NijJJwK3IYxDEqDoBUooqC7TfayDOOM/lzWXbrly3pVuiobj7g+tRLyKWiijFJip4lwufWpRS4pyrT+lKKMUmKfikNJilAoNFGKaRg0mKQiq0gw1RlAaaUNNIxSU0qCMEAj3pjQRsPuD8OKi+xx+rVu65DvtklGcxtz9D/APXxWBRS1JCMvn0qzRSGq7DDkVPYReffwpgEbskN0IHJ/lXZPGUjRifvDOKhlQSwvG2cOpU4965CIZfPpViiirVnbhSZWAyenHSropaKQ1mJGYtyk5wetSVe06y+0uZJADEvBGeprPvI/LaSPOdjEZ+hxSiOE6PFJGjGdbh1mbBwFKr5YJ6ZJEnvwar0UUUYqyowMU7FLipAKXFLijFAHNPxTSKTFKKWjFFNIpuKCKgmXjPpUNFJimlAaaUP1ppFGK6SWMSxPG2cMpU4965FkaN2RhhlOCPekoqeAfKT6mpqKKglHzZrY8MWvnX7ykKUiXv6np/I11d0u6Djsc1nmuXazntVjMybfNUsnIOQGZT0/wBpWH4UlLToozJIF7d/pWkoAGB0pwpaKQ1TnGJT70RRtNKsaD5mOBXTQQCKJYowSB07mud1hNt3NhdoOGHGM8c/1qO0kU6FfQAMZPPgmwFJARRIpJPQDLoOf7wqnRRRToxlxVkCnAUoFPFLS0UoHNOxSEUmKKWikpDSYpCKimH7s/nVaiiitO50doNLjvVl3hlVmXbjaCPXPPJArLIpNg9K6I1zuswmO8EgziQfqOP8Kz6KtoNqAU+ikqGYcA+ldtoenHTrALIoE8h3SY5x6DPt/PNaTAMpB6HrWU42sVPUHFYWq3r3t2AyIiQIIY0RQAACcn3JYsxPqTVOir1vHsj5HJ5NTinUUUhqvcD7p/Cr+kW33rhh/sr/AFP+feuktI9qbyOW/lXMa9HxHIFOSCpP8v61D4ZtGvzqtonmGSSwcoI4i5ZkdHA46Z24ye5HU4ByqSiipYR1NWBSinYpRS0uKXFPApcU0ijFGKMUmKMUmKMUmKjkGVI9RVOip7KNZb63jcZR5VVh6gmtTxDp9rY/Zvs0Wzfu3fMTnGPU+9X73/kVF/64xfzWuUoromUqxUjBBwaz9Vh82xfGcod4/Dr+ma5unINzgVcFLRRVzSbQXmoxo67o1+dxx0H16jOK7WiqF4m2Xd2YVy14my9lGc5bP581DU1vHufcei1eFOpaKKQ00wtcMI0xuJ4zW5DGsMSxqPlUYFbA4GBXOa1Fm0fn/VuD069v61l+E9Rt9I8T2V9dlhBGzB2UZIDKVzj0Gc1mjmiijFTxDC/XmpgKUCnAU7FLilxS4p4HFGKQikxRijFGKMUmKMUhFMIqlJGY29j0ptaOhKG1q3DAEZYgEeikj9ateKP+QnH/ANcR/wChNV+9/wCRUX/rjF/Na5Slrq9Qj2z7+zD9R/kVSNcpcw+RcyRc/KeM+nb9KdbxFlaX5dqkKfmGcnPQdSODz249RU4paKSuu0O1FvpyOVw8vzseOnb9P5mtOiq92m6HPdeelclqH/H9L+H8hVdQWOAMmr8SBFAFSilpaKKStCxh2p5hHzN0+ladsm6UHHC8mr9ZF2nmiePON25c+ma4kjBIqReVpcUU5BluasKKeBTgKcBSgU7FLilAp2KXFIRSYoxRijFJijFGKaRTWFU5yvCjqDmoq3vC0TG8nmyNqx7SO+Sc/wBDVDWZVm1i5ZQQA23n1Awf5Vt3v/IqJ/1xi/mtcrRXbX0fmW5OOV5H9axzVO7t0kIdkViOMkZqsIUAwEUDrjFHlL/dH5UnlL/dH5UeUv8AdH5Va06yW4vU3R5jQ5bjj2zXVCloprAMpB6HiuU1OIC76DOOcd+TUMMQB3flVkUop1FFFSQRebMF7dT9K1gK0LVNkWT1bmp6zbkYnfH+eK42+hMN9MmABuJAHTB5H86iTpTqK09FtbC7nuY7+7+ygWztC5OFMg5Abg8denJ6DniqyipAKcBSgU4ClxS4pwHNOxS4ppFGKMUYpMUYoxSYpCKjcHaduM44zWYGDDI6fTFLXV+G9tvpM1xIu1d5Yvt6qAPzHX9a5eSRpZXkc5d2LMfUmuovf+RVT/rjF/Na5WivQngb7OJSv7tiV5rn5ozFIyHsaryLuUiq22k20baTbW9pdt5FtvP3pMMfp2/z71fFLRSGsHWocXKSdnXH5f8A66pKMU4U6tO80s2mlwTucSu/zLg8AjIH4YP5+1Z1FJWlaxeXEMj5m5NXIU3yKuOO/wBK0qKoXYAmz6jJrmtYiAuw4UjcvJ9T/nFZwGDilxRinAc1YUU8CnAU4CnYpQKXFOUU7FGKQikxS4pMUYoxRikxTSKZNC7W5JVgj5UPjjOBn8sj8xWfczyXN1NcSuXkldndyANxJyTgcVFXXf8AHl4R/v7ofp98/wBN36VyVdTdbP8AhEl8vbt8uPO31yM/jnNcuAWIABJPAAqX7NP/AM8JP++DXq09sDp5hUAlVyML1I/x/rXIajHh1kA6jB4/z/kVnmomXmm7aNtTWlv59wqkfKOW+ldAKdRRSGqGqQiS0LYJZDkYH51iCnCtPRbA3t6GYAwxEM+e/oMfhXT6hbm6sJoQCWZcqAcZI5H6iuIoqa2i8yXJGVXk1pCr1omFLnv0qzRVG8/1o/3axNXj3RxvnoSMfX/9VZJWmYpaUdR9asKKljjaWRY0GWYhQPUmtbU9LSysrd1A352ynJOWIzx7cGssClxSgU7FOAp2KMUhFJijFGKMUYpMUmKQipBdyrZSWZO6B2Emwk4VxxuHvjI+h9hjBpVVnYKqlmJwABkk11fiZli0uKFGCAyABFOMqAe3oOP0rk66V5Gk8HBnOSFC9OwfA/QVn6PF80kxzj7o/mf6VXk1O5MjFJCEydoKjgV60a5bVrXaZI1B4+ZP8/pWAabtpNtG2tWwh8uHcfvPz+Hargp1FFIaZIodCrDIIwa514yjsp6qccUiozMFUFmJwAByTXbaZZCwslhyC5O5yOhP+eKt1xOow/Z9RnjwoAckBegB5A/I1VAycDrWnDH5cYXv3qxGhdwo71pKAoAHQU6g1TvOqn61mXib7WQZxxn8uaxNtMdOMgc1HVmxlnhuGa3j8xzFIhG0n5WRgx49FJP4Uqjiul0DTyi/bJVIZhiMEdvX/P8AWr2sQ+dpkmFyyYcc9Mdf0zXKAUuKXFOxTgKXFLSEUmKMUYoxRikxSEU0iobkMtpJLscoCELAZALdM/kfyNZdXdHi87V7Zd23D784z93n+laXiqbdc28O37iF8565OP8A2X9awK6WIRnweRIxVdrEEeu84/XFU7Qi30dpQxBIY564PQf0rGr2Y1k6vFxHKP8AdP8AT+tcnNF5czKOgPFR7aNtSQQ+bKFI46n6VrCniloopDTTWTfwhZ9wGAwz+NX9AsVlla5kUFYzhM/3vX8P6+1dJRXOeJIG8+GcZKldh44GOev4/pWXaxEtvI4HSrwq3aJklz9BVylpKq3Y+VT6HFUZFDKVPQjBrDKkHBGCKTbUUkeDntTBwa1tJsTfXQU/6pMM555Hp+NdiqhFCqAFAwABwBSSIskbIwyrAgj1BriipVirAgg4IPalApcUoFTQxNNKsaFAzdC7hB+ZIApHQpIyEqSpwdrAj8CODQACGJcKVGQDn5uRwP58+lNoxRijFGKTFJikIppqXUDLDoMUflRNb3DeaJ1fDrIpKtGyg8gKUYE4xvOM5OMCtvwxCXv5JSgKxx4yexJ4/QGqeuTCbWJyHLKpCDPbA5H55rPrpoHRPCBMi7hsYAYzyWIB/PFVNRBg0xIgQeVQnHoP/rViV7LVe7iM1s6DqRx9a5K9j5V/wqptpNtXrWPYme7c1ZFOFLRRSGkNV57ZrnbGgG/dxmt+CFIIUiQYVRgVLRWfrFubiwYD7yEOOfTr+maw41CqAO1SqCSAOprRjUIgUdqkooNVrv8A1Y+tUWrLnTEz/XNRbaQoCMEVNpeltf3k0KvEClvLKqyEguQpwF5GWzz1xwScgYPX20LRozSNvnlcyTP/AHnPJNT0Vyupw+VqMwAOGO4E988/zzVUClxS4pcUYpcUYpcUYpMUYoxSYpCKaaNQ1F/7EGmogW3+0CcknLb9m088DHfGPxNYmK6jwvGosZpAPnaTaT7ADH8zXNXMvn3Ms23b5jlsZzjJzUVddpSK/h6IMMjDH8QxIrF1t8zRR4+6pbP1P/1qy69lpprnNSt/LlkTHDfMuOKyNtOSPc4HbvV5RTxThRRRSUhq7YwlQZGGCeB9KvClopkih0ZWGVYYIrmmQxyMhxlSQcVPapl93YVdFOopKhuP9S34VQNUblf3gOOoqDbSba2dEseftbj2j5/Amt0UtFYWuwnzopucFdvTpjn+v6VlAUuKXFLilxS4oxRijFJijFJikxSGmmotSvpf7Pi06OTNoJTOwKAEybVHXJ4HzAeucn0GRXa6QYLLSbVr2Xy4OGkdQThWbPp159KyfHEaReMdQWNFRSyMQoxyUUk/iST+Nc/XX6P/AMgGL/df/wBCNczqLiTUJmGcA7efYY/pVWvZaaay9WizGsgHIODx2/z/ADrAkTDmnxLgZ9anFOFOooopKdFGZZQvbv8AStZQAABwBT6KKaawr+Ly7xsdG+b/AD+NTQpsjAxz3qWlooNQzjMTfSqBqtOuQD6VBtqezszdThOQg5Zh2FdOihVCqAAOAB2pwpaKztYj32JOcbGDfXt/WsAClApwFLilxRijFGKMUmKMUmKQ000w1m3rZnwD0HT3rW8OabY3trqs99vPkW4WEBGx5jnapyCBnOBg8HJPQGrviF/J0gRoqhXdUwB0A54/IVU8chm8WXUpjkRJkidN6FSV8tRnBGeoI+oIrna6vTZPK8OCTGdkcjY9cE1yhJZiWJJJySe9JXslNNQXMXnQOnqOM+vauZkXJpVHFSCnClooopK0LSHYm4j5j+gq0KWiimmqV7EH8t+fkNQilpaKKil/1bfQ1nmopBlahCliABkngAVv2VqLWHbkFzyxq2KcKKKhuEMkEiDGWUgZ+lcuBTqM0ZozS5ozS5ooxV2C1UxI7ofm5BOcEZxx+Rqb7LEf4cfSj7FCex/SlFhD6H9KDYQsecn64praVaOctGCfdR/hUttYw2kheEFGIxlePbt7E/nT57WK4C+YM7TkexqB9LtZDl0DHplgD/SpLewtLZyy2tu5Ix+8hRx+RGKkMURRoxGixtnKKoVeevA4qm2kWLAA26cegxn8qj/sPTv+ff8A8fb/ABrs6aaY1YGoRbLt+MBvmH+frmqwFPFOFLRRRUtvF5kvP3R1rSFOFLRRTTUUy7o2FURS0tFJTGrONRsKuadbfP5zdBwv+Nawp1LRSUhrnbyPZeSjOctn8+ahxmk2e9Hl+9Hl+9L5fvS7B70u0elGKK0oLWaC0jllikQSsSm5cBhgcjuevpj3PaUU4U4UopaWlxRikxSEYphpK6Ommmms3U4t0Sv/AHT+h/yKy9tLSilooorRgj8uMDv1P1qcU4UUtJTTTTVBxtkYe9JRRSU01nsMMR6U6GEzShe3U/StdFCqFAwAMCpBTqWikpDWRqyASxv3II/L/wDXWfS0tFLRRSVpaBaxXmu2kMwzGWLEcc4BODntxXReLY5Re28hfMTRlVXJ4YHk498r+VYIpwpwpaUU4U8U4KDRspCgI5qGRCp9vWo66M00001BOgkjZD3FYpQqxBHI4NJtoxRikoqe2j3PuPRelXwKcKdS0UlNNNNU51w+fWo6KKSmmqbr85+taluqRWQjXeJHbdKCQVOPu49OpqQU4UtLRSUhqjqSbrUnP3SD/T+tY4paWiloopKt6TL5Gr2cvmeWqzJubdgBc85PpjNdT4t837ZbZ/1Ow7en3s/N79NtYApwpwpaWnCrmnCze6VLwuqEjDBsDPofb3/yOkfRbCWA+Sm0sMrIrlvx681zk0LwTPE4wyHBqLFIy7lI9apHg4rojSGmmo2rLuY9sxI6NzUO2jbSbaNtATJAHer0aBFAHapRThS0tFJTTTTVecZTPoarUtJSU00sKAuzMgPGAT2PqP8APerKininUtLRSUhqKZPMidM43AjNc+QQSCMEdqWiloooooVS7qgxliAMkAfiTwK7HxXNE97DEpJkjQl/myBnoMZ4P9CKwhTxS06ilorofDuotuFjJjbgmM989SP5mm66irqIKjBaMFvc8j+grLNFRmFCSSvX3rWpDTTTGqndJlQfSqu2k20baTbUsSc5qwKeKUUtLSUU0001G4yCPWqXSiikpuMnAqwAoJ2Ahc8AnJx9akFOFKKWlopKQ0xqw7pNl1IM55z+fNRUtFLRRSVJbwNc3UUCEB5XCKW6ZJxzXU+KmDaugGflhAOQR3J49etYwp4pwpaWiinwymCeOVQCyMGGemQc10evSLLHZyIco4ZlPqDisU0lFaVIaaaYahkGQRVMrik20baNtSqKkFOFKKWlpKKaaaaY1VZFw596ZikxSYq+i2kGnBv9beS5x6RLkjp3J/Trx3gFOFOFOFFLSUUhphrN1GIkiQZOBg1Qp8UZlkCLjJ9asfYZfVPzNH2GX1T8z/hS/YZf7yfnSfYZf7yfnR9gl9U/Op7G3e21C2uHKlYpVdgvXAIPFautXa6lfCeIEIECgMMEcn3OetZ4Qil6U4UtLRRRXQXc8cuh2GFO7GASOm0bT+uKyzSUVpUhppphqNqrMvJpMUm2jFPFPFKKdRRRRTTTTTDUMgzUe2jbSbaVRUgpwpwpaKKKDTaaahnXclZM0XlSY/hPSprD/Xn/AHf6itKiiikpaKKY3Wkp1FLRRW28gHh2yjwdzOzD04J/xrPNFFaVIaaaYajaoiMmk20m2jbQBThTqWilpKDTTTTTDUbDJpuKMUm2jFKKcKdS0UUUlJSGo3GRVSeHzIyAPmHIqvYjFwwIwQp/mK0qKKKKKKKY33qQU4UUtFFXfOL20EZyBGpAGfVic/qPypmaM1UaRixIY4z61vUhppppqNqbtpNtJtoxSbaMUtLRRRRTTTTTTTcUmKTFGKTFGKUUtLRRRSUlIajambaiWHZc+Yo4ZSD9anoooooooqNutAp1FLRTlXca0TZPHYG6lzGpIEYI+/n+XAzVTNPEbNBNLglI1ySDjknA7epz+BqhXQGkNIaaabijbSYpNtG2kxRikxRikoopKQ0mKTFGKTFJikxRikxRijFFFFFJSU00hFJikxSdKKKKSlpKKY/3qAaWlpafHG8rhI0Z2PRVGSa3tL0lEnBuwjEg7YxluQeSSOOMYxz157Vf1GW1ee1tbuKV3b5gkRyPQ5AOcDrnHb6iqQ8OrJI3lXf7sEjJTJBHbrz3yfUflJrkQtNDW3gOEVgWBIyVzyf++ivT1rNXwvfMoJeBSRkqWOR+QqxikxSYoxSYo20mKTFGKTFJijFJijFJikxRikxRikxSYoxSYpMUYpNtJijbSYoxSYoxSYpMUYpMUYpMUxxjmm0lFFFFFPjNr5mLgyY2twhxzjI5wep46cdagw2wNg7SSAccEj/9YozS5pc1btb420ckWzMcgAdVYqWw2eT9Mjj1rcsNdsnT7K8X2WPbtQhyR+Yxj6/rVG5v7JLiS2S3QwNJ+9lVi7yAEHgnHXHPJ9vfYg17T3kigRiilerAKqcdDn+nFZKvdar4jeS1k8tYcqJlUOFXBA+uTn8/at9b6xt1EL38JaMbCZJl3ZHHPvWPijFJijFJikxSYoxSYoxSYpMUYpMUYpMUmKMUmKTFGKTFJijFJijFJikxRikxSYoxSYpMUYpMUYpMUhUEYqHYaNrelLFDJM0ixrkxIZH56KOppkQ86VI4+Xdgqj1JqeWyuIVJkj2gHB+YHnJHr/sn8qYLeUhyE+4u5uRwM4/qKR4njYKy4JAbr2IyP0NOTT5J4pJQygIAcE8kZxx+dN+wv/eH50fYn9RThZt3YUfY2/vfpR9kb+9R9jf1oW1kU5VyDgjj0PBppsm9aPsb7Cm47SQSM8Ej/wDWfzpPsB9q/9k=;" vertex="1" parent="1">
          <mxGeometry x="400" y="419" width="265.2" height="221" as="geometry" />
        </mxCell>
        <mxCell id="VGW-gERCkuLHL1JLUqx4-48" value="" style="shape=image;verticalLabelPosition=bottom;labelBackgroundColor=default;verticalAlign=top;aspect=fixed;imageAspect=0;image=data:image/jpeg,/9j/4AAQSkZJRgABAQAAAQABAAD/2wBDAAgGBgcGBQgHBwcJCQgKDBQNDAsLDBkSEw8UHRofHh0aHBwgJC4nICIsIxwcKDcpLDAxNDQ0Hyc5PTgyPC4zNDL/wAALCAF3AcIBAREA/8QAHwAAAQUBAQEBAQEAAAAAAAAAAAECAwQFBgcICQoL/8QAtRAAAgEDAwIEAwUFBAQAAAF9AQIDAAQRBRIhMUEGE1FhByJxFDKBkaEII0KxwRVS0fAkM2JyggkKFhcYGRolJicoKSo0NTY3ODk6Q0RFRkdISUpTVFVWV1hZWmNkZWZnaGlqc3R1dnd4eXqDhIWGh4iJipKTlJWWl5iZmqKjpKWmp6ipqrKztLW2t7i5usLDxMXGx8jJytLT1NXW19jZ2uHi4+Tl5ufo6erx8vP09fb3+Pn6/9oACAEBAAA/AKXxN+J/jHw98SNW0nStY+z2Nv5PlxfZoX27oUY8shJ5JPWuVi+Nnjtj82v4HvaQD/2StzS/i14zu7QyNre87yM/ZYR6f7FXv+Fn+Mv+gx/5LQ//ABFL/wALP8Y/9Bj/AMlof/iKX/hZ3jH/AKDH/ktD/wDEUv8Aws7xh/0GP/JaH/4ij/hZ3jD/AKDH/ktD/wDEUf8ACzvGH/QX/wDJaH/4il/4Wb4w/wCgv/5LQ/8AxFL/AMLN8Yf9Bf8A8lof/iKP+Fm+L/8AoL/+S0X/AMRS/wDCzPF//QX/APJaL/4ij/hZvi//AKC//ktF/wDEUv8Awszxf/0F/wDyWi/+IoHxL8X/APQX/wDJaL/4il/4WX4u/wCgv/5LRf8AxNL/AMLL8Xf9Bf8A8lov/iaP+Fl+Lv8AoL/+S0X/AMTR/wALL8Xf9Bb/AMlov/iaP+FleLv+gt/5LRf/ABNL/wALK8Xf9Bb/AMlov/iaUfEnxd/0Fv8AyWi/+Jpf+Fk+Lf8AoLf+S0X/AMTSf8LJ8Xf9Bb/yWi/+JpD8SvF3/QW/8lov/iaT/hZfi7/oL/8AktF/8TR/wsvxd/0Fv/JaL/4mj/hZfi7/AKC//ktF/wDE0h+Jfi//AKC//ktF/wDEUn/CzPF//QX/APJaL/4ik/4WZ4v/AOgv/wCS0X/xFH/CzPF//QX/APJaL/4igfEzxeT/AMhf/wAlov8A4ipB8SvF3/QW/wDJaL/4ml/4WT4t/wCgt/5LRf8AxNH/AAsnxb/0Fv8AyWi/+Jo/4WT4t/6C3/ktF/8AE0H4k+Lscav/AOS0X/xNMX4k+MOd2r/+S0X/AMRT/wDhZXi3/oLf+S0X/wATR/wsrxb/ANBb/wAlov8A4ml/4WT4t/6C3/ktF/8AE0n/AAsnxb/0Fv8AyWi/+JpkvxK8XiMldXwR/wBO0X/xNVf+FoeMv+gx/wCS0P8A8RT4/id4yZgP7XyO/wDo0P8A8RVr/hZXi3/oLf8AktF/8TR/wsnxb/0Fv/JaL/4mj/hZPi3/AKC3/ktF/wDE0n/CyvF3/QW/8lov/iagl+KPi1OF1fn/AK9ov/iKIPij4ulYg6tz/wBe0P8A8RU//CyvF3/QW/8AJaL/AOJpf+FleLv+gt/5LRf/ABNJ/wALK8W/9Bb/AMlov/ia+gq+QfjWcfF/XcHH/Hv/AOk8dcF+8lBwp2qMnA4FdT4bOdOkyP8Alqf5CtkUtLRRS06ilopaKdRS0UtFOxS0GkpCKTFJRSUhpKSlFSgYprSYNOU7hTqSiiiiiiq8kHOV/Knxx7Rz1qTpS0UVmyoyOQ31z6061YrOMDOetaDdaSjFfVtfIPxsOPi/rv8A27/+k8dcLBN5ayLtBDjH0rp/Di405+Qcyk8fQVsClpaKXFLS0tFFLSinUUUuKKWlpaKQ0GkpDSUlFNNFC/eFSPwKhNKhIcYqxRSUUyR9q9ee1RxyEdTmpweM0tJRRRRRTXRXGGGRQqKgwqgfSlNFFfVtfIXxq/5K/rp/69//AEnjrgUcpJkgH1BGa7HQ1iXS42iUgPy2e56H+VaVLRS0tLS0UUopaWlopaWilxS0UUUlJSUlFJSGkpyDnNSHmozHzTwoFLS0UhBxxVR1Ksc03mrMJwmOakpaSmySLGuW/KoUugz4YBQehqfNLS0lFFGK+rK+RvjMcfF/Xf8At3/9J4642ORCv3Fz3OK6jTkCWUSryNufz5q5RRThSilopaKUClxSgGilxRSgU7FFFFFFIRSGkIpKcI3KFwpwO9NpppKelSUUlFLmikpGQOMGmrGqdP1p2MU6iioZ4jKox1HQetUtpzt75q8gIAyecVJS0UmKp3VwQxjQ4x1IpILltwV+R619c18hfGptvxf13/t3/wDREdcKGIGR1rrtEDf2ZGWz8xJAIxgZ/wAn8a0qKWlpaWilFLS4pcVPEBSTL/FUVLilpaKXFGKSiikpKdFH5kgHbua0QAqgDoKzZo/KkK847VEaSnoKkooqN32j3qHcSck1YRsrTqKKTHNFLRRTSq7t20Z9cUuKKWiis+7j2ybwOG/nUUUZkfA6dzX2BXyF8av+Sv67kf8APv8A+iI64yCMSOvQAc8jOa6nSPP+x4nKkhjtI7j/ADmtCinClopRRThS0tKKniGBT2GVxVfFFFLRS0tIaSikoAyRVy3h8rcc/eOcelTVTvF+dW9RiqtJT16U+iiopVzzUOKmjQgZPFS0UUAVBcSENsHGOppYpt3ykfNU1FJS0mKKWimsoZSpGQaakaxjCqBX1fXyD8a/+Swa4Pe3/wDREdcaVlH+pyWHYDrXU6PI8lggkXbIOo/lWgKdRTqKKWlFLS0oqygwKcagYYY02lopaWikpKKSpIl3OBV4UvaoLiLzEyOq8iqFNqRRxSk4FAORS0mKaIwpyKdS0UUVXkgZnLbgcnvSxRFTlutT0UUVXuZimEXgkdahgkKNgn5TV0HIyKWjvSGvqyvkH42Ej4va7j/p3/8AREdcXbu7XcbHdxz8tddpufLY7cA4PvV6lpaWilpaWlopyjJq0OlLUUnWo6KKcKWikpKSip7dMkt6VaFLSGsqjFLnatMLE0qHBqWiiikpN49adRRRSUtFFMljWVcHr2PpVZLZ/Mw2NvrVvAHAHFLRRX1XXyB8bDj4va7/ANu//pPHXDQXDQuGyTj15rs9JkSWzV0OQec1oYpaWilxS4pRRS0tSRj5qsCio5B3qKilpRTqDTaSkpyIXbAq5EmxcVJS0hrOuVCzHHfmoqeRkVGVxSqvepKKKKhlc5K9qiyc1PE2RzUlFFFFFFFFFFFFfVdfIHxt/wCSva7/ANu//pPHXn+K67wuSdNkBJ4lIAPbgVu0tFKKWlopaKUVPEODUwFFMcZU1DRS4paWikNNoNSQZ8wVcFOopDVa5hDqXHDKP0qkOtSdqCKKKKKKjePdyODUaxEnniplUL0p1FFBqm8jg4JIPepIHZiQTkAd6sUUUUZA6mlDow+Vg3uDSV9V18g/Gv8A5LBrn/bv/wCk8dcLtUJv210nhbDQXD87i4B44wB/9c10NFLRThRS0UU4VYjXC1KKKYahPU0ClopaKQ02ircSAKCO/ephS0UhqORQ6FT3rOHWn0UUU0uBSgg0tFFFFFFFRTRGTBGMiiOLYDzkmpRRRRVe8H7kf71VY2eMqcsFz+BrSxX1XXyB8bf+Sva7/wBu/wD6Tx1wJkY9yB7V1vhYY06T/rqf5Ct2ilFLS0tFLRTlHNWVp9FIRULDmmilpaKKSkp8a7m6VbUY4p9KKSg0w1nsmyRl9DRRRTHJqKnISGqaiig013CDP6VGs5J+YD8KmoooooooprorrhhkU5cKoUdAMUV9V18g/Gw4+L2u/wDbv/6Tx1wQjkYb1Xgd66/w7N59k7BQoVtuAO+B/jWzS0tFKBS0UuKWnIMmrIGBmnlSpwRg0lJUb0zFLRS4opArM2EUsT2AzSEEEgjBHUGrEK4SphTqXNIetFI1U7n/AFg+lQ0UUHkVEUOcCpEjxgAZJqY204x+6c5GeBmj7PP/AM8ZP++TSG3nH/LF/wDvk010ZDh1Kn0IxVOTO85plWos7efwqSikoqJbhWl2AHHrUxFJRRiivquvkH42Ln4va7/27/8AoiOuHVQsZVsgHuK6fwuANPlA/wCep/kK3cUoqRIJJc7Fzirh09FhJyxcL0B4JqjRS0tKKkiX5s1o2yJt3Zy38qfcDMefSqlJUbUyilFFOKgR+Y3CE7cnua0rG1MLu7Hn7oHtTr61M22RRllGCPUVUUYpwpaWikppqvcD5QfQ1VJpRzUsMDTOABgd29K0YbCJeW+c+/T8quqNqgAYA6AUuKUCjFGKQoCCCMg9Qaz7/S0nTfAoSUdgMBqy1sLhHIeB+PQZH6UUUtFNkUvGyg4Jqn5EqPkDGO9XASTS0UUV9V18h/Gk/wDF39c4/wCff/0njrhi2VIbrXReFvM8i4yP3e4bfrjn+ldDS1e04EsxI6CtCsRlKOynqDg0AZ6UoHrS0pU4B7VNCOKvwwRKwm8tfNK7d+OcemfSpmUMpU9DVORPLbGc0ymMKiPWloFLV2wiW6gnhkJ2IQR6qT1x9cCtONBHGqDoowM1WvXIVVB4Oc1SFOFOoopKbTXAIIIyKrxWZecLu+Q9+9aIsoPlwg+Xn6/WrCxKvCqAPYVIFp2KXFLijFGKMUmKMVXuLZLhdrjp0I6isWeBoJTGxzjocdRUdFFGeMGkxRRRRX1XXyJ8aNv/AAuDXAxx/wAe/P8A27x1wKsnmBQpcZxnua7vT0jW2RYlCpjgCroFKKv6eh3O/bGKv1k3YAunwMdP5VFkD60ZzzS0+Jg68EMpHBHerUSrvUEcZrQHQYFFQXOML61WpCM1CeGNa1to6zWayPIyyPyOAQBWZJG8UhjdSrLwQaQIznaoJJ7Ctu1tore0hKFvOdSZgR91txAA46bQp79TU1Ur7qn41VAp1LRRSGm0nWp7WPczbo+Bghs96uBaeBTsUYpQKXFLikxRiikpMVDcW6zxlWAzjhsdKxbq1+zSBN+/IznGKgpKWkopcZ7UmKK+q6+QPjZ/yV/Xf+3f/wBJ464a13CcMhHHXNdVolyTcPE3G8ZX6j/P6VvVYgtmlYggqB3rTjQRoFHan1TvLcyEOgGe/vVZLKaU/KvT3pjxPE+yRSp96t6ZYNf3ax7HMYI3lew+vbvXWapaoNM2QwRBUOQAn3R3x6f/AK65aJNz47DvV1elLUM6bkz3HNVcVUuNUsbScQTXCrKcfLgn+XStPTII72RZHj8yAg4ZW4/z7V0AAVQoAAHAA7Vn6pYtclJIiN6jBB7j/P8AOqNvZS5JYFMd6vqoQBQzN6lvXvTqqXqnardgcVUFOooopcGmlSe1PjgZjnoKvKoUADgCngUtFLTgKWiikopMUYpCKhmgjmAEiBsdKwJlCzyKowoYgfnTKKSmyOI0LH/9dUvtEu/cHIPp2q+snmKGPUjNLX1VXyD8axn4v67/ANu//oiOuGt4w8yqMg5rf06JVv4dxONw6etdtFGoUHaM+tWY+G+tTgUtRy52HFJbyCHcz4EeMsxOAvuTWZBcNrmu3FtZo0nlpuB3DBAIBI56ZI/OvQraFLa3jhjGERcD/GluGCW8jsoYKhJU9+OlcfCCMnHFWBS4qOXJjYCmRWqyxK24gmse78EvqOqrdPfEQlsuNuGAHZe3tk9PeuxtreG0t0ggQRxIMKo7VNUUwcxkRkBsjk/XmonB2kVEKXtVa7BMY+tVAKcENOCUuwUBQKXFKFqwi4FPAp1FOxS4paXFBFJRRRSUYpCKz7yxidvMAKknnHeqRsOf9Zx9KiazlA42n6GoDwcEYPpTZE3xsvqOKzmRkbDAg1egQxx4PX+VSV9V18h/GggfGDXc/wDTv/6Tx1w6KUdXUg4Oa3WuI7ZVmZgzDHyrg812lm7S2kcjpsZhkrnpVqMfNVgdKWmuMg1UuLiK3tJhOpeN42BQZ+b5SccdOAeawNMkxqNxd24EPzFYzCSMAk9OnbHYV6dpk8tzp0E0ylZGXnPf3/Hr+NWn27G342YOc9MVyEfU1KKdTSKmgUBAB0q9GMLUooNNNV5XGSB1qIUVHMMqRVfFGKWkxRiipI1y2e1TgU6inBSacFpcUAU4Cg03FAFLijFJikoqORQy4NU2Qg03FMaJHJ3IpJ745qM2sXZcfjTHs4mxweOajNlxw/6VC0EinBQ/hzX1LXyD8ahn4v677fZ//SeOuDWWTAVScVfgmaKeKZxvWNw2wnrzmvSbSVZrWKVQQsihgD15GatxKc5qeg0hrLaODX7S6tbWQSTpgqAON3Pc8c4Iz71veF/DTaG08ks6yySfKu0EBRn+Z4+mO9dIKraizLp8xRcnbjGOx4P6VzEY5NTClpMVZtjhSpHfOauqKfRimmqLf6xvqaKKY/3T9KgoxRSUYpcc1Oi8VJS4pyrUmKMUYop2KQ0mKUClpMc0EU0ikxTSKgkXBqIrTSlNKkU3FJijFfSdfIXxqfZ8YNd4yP8AR8j/ALd465BIomjV4061LEkRKIQd7ttUEHk/SvR4cmJSeuOcVcj+6M1JQaSuYfUTo/iebyQqRNIjSE5PXknv3J7V6Tp2oW2p2q3FpIJEJ28dQfQjrWg0LpGHYYBqF0EkbIwyrDBHtXN3NobScxkgg8r9M96ZS4p0aBnxmrqRBfrUw4p1FIelUWGZD9aNvFKsM0i5jidx0yqk1CwypFQr0paSiinIuTVgCnAU4CngU6iigCn4ppFJSilAoxQRTTSYpCKglHy5qGkoxSFQaYUppUivpGvkT40EL8XteJ7fZ/8A0njrlLNs2odgBzxiknieZQ4AVlPB9q7zQJ2vNLt3dg0gG1yD3Hr74wfxraAxTqKa0ckgKxAlyOABXC6pBcvrs0MiP5zS7FDcbudox044r0f4eaXfWNlctdgLG8n7uM4ODgZbI9en4e9dpKm+JlxkkcfWss1hanvN8S3TaNv0/wD15qrQBVmKMjkVbFOxS0YpKrNEfMJFMtVkutRWFXi8jb8+D86nk9OmK6aJEjjCIAqjoBWFq8QivSVxh1DYAxjt/SshfSnYopKWpYxgVMBTsUop4paKWlAp1IRSYoxS0UhpDSUhFMcZGKqEYOKKCMUlJ3oxX0ZXyH8aUDfF/Xc9P9H/APREdcvEF8lWHCjpUrvvjChPY12XhsIulRBdu7Lbseue/wCGK3RS0tT28jxklDgkYJrNvNPsbnVrMuHF6zZi2Zy+3nB4x3+tejWtpHZQCGIuVBJ+Y5NTGsp12sy5zg4rB1Pd9s5GBtG33H/681UqSNCx9quouBipBTqKKQ06JVMybvulhn6Vp2Wn21k0v2aIIZX3uepJ/wAPatNYQIHYqM7Tjiub1qI7o5h93Gw+3f8Ax/KsEBt3NPpMUYpVHNToOKkApwpwpRS0op2KUCnYppFGKKMUUlGKTFIaYw4qFkHNQkbTimucEelIG3VqvYQp4ehvBu855CCc8dSP6frWXX0XXyJ8aD/xeDXfT/R//SeOuVt3VYCJGAUetWrNZpYPOjjZlzxkdfwrpPCsMe6ebdmUYXGOgPP64/Suoop8aF2Axmr0NhcyN8sagf3ieBW5p+mRwSC4mRGuMYDbfujg4H5D8hWrmioZbZJTu5Dd8d65PVNw1CRW6LgL9Ov9aqKuTirsa4UCplHFOp1JS0lTWmHuthhYqEzvIG3Pp9a27ZdzVdlGIH/3T/Kud1ZA2nljn5SCP5f1rmyfmopaSnKOanUcVIKUCnAUuKUCnYpaeBS00ikxRijFGKTFFGKQimEVHIvyk5xVGJmaJS7Bm9RWhZaPd6nlo9iRLxvZup449e9Vri0ksrl4Jcb1OODwatNK8mipE1wmyOU7YtvPTrn05P6/hQr6Lr5C+NRx8X9d4/59/wD0RHXESTeYgXGMVu6HeqYktMYdQSCeh5z+fP6V1GhQtFfTu0igSAYQDr/n+tdAKXFaumWhMyl8Dvg9/auhRBxxgelWRThQTTTXKa5E0eqOzDiRVZfpjH9DUEKgLnuanUVIKUUtFBpyRtI21RzWnDHsjVPQc1qWqbUz61YrD1KILazxNzhSfy5Fck/WgUtFSRiplp4FOApwFKBTqMU4CnUuKQikxRijFGKTFGKMU001hUE5xC1UkURoFUYAroPDN75dy1qQxE3K88KQDnj3H8hWbqcxn1K4k3hwZCFYdCBwP0xVOivouvkH42HHxe13H/Tv/wCk8dcSYkjjVtxLkZK+lamn2H2uPzkuWidTjcB/9f0xW/pn22z1ozXEzTW/l8YAGCT6evWu2tBHd2yzLuAbsfrVgW65710VlCPIjd8FgMjHbNXwKeKcKKaax9dt43ijnIO8HZn25NZKDAxUoFOFOFKOtFFX7aPYmT1arsCFpBgZrSUYAFOzVG9UFlbuRiuGljeOQpIpVlOCDSKOKWjFPSpwKkApwFKBTsUoFOApQKdilxTSKMUYpMUYoopDSYpjCql2QFVe+c1XFdvocEcOlwsoj3OuWZO/J6n2ziuPvUWK+uI0GESRlUegBq62iynTFvY5Y5BsLsoPQfXufX6d6y6+i6+QPjb/AMlf13/t3/8AREdcfAA0BTP7x+Cx9PTrW7p8flweWM7R71U1K/uoNQG2UxqqgKAcgj1IP416V4XnluvD9s864kAIPGMjPB/EYraRV3jdkD1Aya27BJktQso2nPTOeKugU8UUtNNZusKWtFwCQHBPtwaw3YxRNII3k2jO1MZP0qSJmkiWRo3j3DIVxhgPep4LeW5kEcKM7HsB0/wrY1HQ/slqssBeTaP3uf5genWsaip7aLc+5lyo6H3q+oycAVpW8IjX37mpxRVG8B3qe2MVz2r2hZvtK4wAAw7/AFrJApcUoFPUc1MBTwKcBTqcBS4pacBTqKQijFGKMUYpMUmKMUlMaqN5jegxyB1qAV2sM8eneH4pwhKrErbQepbH9TXFszO5dyWZjkknkmuuTyovDHyMoT7Oed38RHP6muSRHlbbGhY+gFfRNfIXxqGfjBrn/bv/AOiI64UK24AE5zxXSSt9jsg7Mwk27Rj+9isjWpGl1DnYdsag7DkDv1wPXPfr19PQfBOty6hcXNrcAGQRrIrKMDA4OffJB/Ou7s4BLONwG0cnNba4CKo7d6eKdS0U2obiITQtGf4hXD3OtiyupIZLaQeWQMk4PbnH05H4Vs/ZLie/t2juY5YplA/dncuTjBJ7YA/Wuw0jTTp0Dh2VpXOWK5xgdB/P860GVWUqwBUjBBHBFcCylGKsCGBwQe1AGSKvxDagHarlspMy4/GtEU6g9KqXg/dg981nyoJI2Q5wwIOK5opTcYoqSMZ5qYVasrR726WFDjPJbGdo9avanpAsIY5UkLqTtbcO/qPbis4ClAp2KXFOApcUUYpKMUUUUhFGKbTCKz7pg05A6LxUBrpdXnlt9As7cxECSNVdmB+UgA4+v+Brm6nSOcW0jIJPIOA5Gdp9M9u9a+nWpt4Mt99+T7egr22vkH41nHxf13/t3/8ASeOuIRdyZVunQ1qx6hd/YCrY35wSyg5WsiTDySNgLzkLWno+rX2kXjz2jhJWjKNvXPB/wOD+HpxXo/w41jVtQ1C8t7uZri32GYyMP9W5IAUHoARnj/Z4716UoqQUopaKQ00isrUtMg1KzkgmGODsfGSrdjWj4a0FNL06HzZBNNjluw57fT1/l0roBSmuP1q2FvqLbWJEo8znsSTxVWKJi4LZAHP1q8gqxE/lsGweeOBWiBxTu1NzUF0AYT7Gs9qwriERTsgOQOlQOnGaYBziraqqx5PNTadZTX8rJEo+XqzdBXXWNjFYQeXHyx5Zz1Y06+iE1hOhUsShIA7kcj9a48UuKdilApwFLijFBFJijFGKMUmKMUlNNMasggbjg5GevrWnoEJl1iI7Ayxgu2e3HB/Mit3xLE0mk7gRiORWOfTkf1FclDDJPKsUSFnY4AFdlHZm00g28ZAfb8zepPX0/wA4qrivYK+QPjZkfGDXMdf9H/8AREdcQglcMANobrT99xGiqw+XPHeo23ySnI59KsxpsOQfm969h+G2gJp2lvfsUeW6UFCvOyPrjkAg569uBXeKOKcKdRmikNNNOhtTcOeyjqa14k2RqgOdoAqSis/UdMjvgrZ2yoCFPY+x/wA9659VyanQYwB1rRjBCKD1AqUUpPFJUFxkxNWe3Ssm7TFw3Oc89ag201gAp45pobCYNdT4ai2aZ5uF/euSCOuBxz+IP51tCiuU1O2FtfuqrhG+Zfof/r5qqBS4pQKcKWiiiijFGKTFBFNIppqN+FJGAcd+lZFa/hy2kl1NZlA8uEEsSfUED/PtWp4lupI7MW6xEpKfmkPQYOcfXj/PafQLaKLS4pRGnmuCWcYJIz0z+A4q5df8e7fh/Os09Oma9fr5B+Nf/JYNc/7d/wD0RHXDQtiQ89qncrImCeBUCtt6HFXbeN7uUrGBuAyQTXvXhHR20PQ4bJ5RLIMs7KONxOSB7f546V0Ap1FFLSUhrUiC+WpQYXHAqZadRUF0C1rMACSUIAHfiuaQVbtkPmBscVdxS0UGoZziJj7Vnt0rPu0GVYDk9TVbbT7e1e8nEKdcE5PQfWtWDw3G0TC6kbfnjy24x+Irdghjt4ViiQKijAAqWiue13/j9T/rmP5ms3FKBS4pcUuKMUYpcUmKXFJijFJSEU01XuMiF8Y6d6y8V3Gl2H9nWYhL73Y7mPbPHT24q4yB1KsoKkYIIyCKXtVa6XdD9DmsXUbo2lvlMb2OBnt717RXyB8bDj4v65/27/8ApPHXCoc57UqblJB6U7AJAyBnua2vDUJt/GOmI0LT/vVYKjEHBGQ3HYZ3H2HPFfQNn9wVbFOopaSinxRmVwo/OtKNAihR0FSgUtFNas24sUd2kXIJOSO1RogXgVJS0UVG/IIPQ1mmq8iCRSO/aqewmtnSbKW2nWdihDJgr9ea2QSSTT6WkrL1mKNrfzShLqQAw9Pf2rCxS4pQKXFLijFLijFGKMUmKTFIRSGmmqt3jyCSccj8az442llWNBlmIUD1JrvbWMw2kMTEFkRVJHTIGKnxSGoZclDgVxuq3JnuigBCxErz69zXvlfIPxr5+MGuZ/6d/wD0RHXChVXmpAuRSyRlmXapxjtV2wnnspfMt5pbdyNpaNypx6ZHavX/AIcXE8ukvHM4MaHEKqFACjrwFHc9STn+fcClopaDSVoQKAinaBx271YUcU+iimsKrzHbEx9sVTFOopaSmP0rOYVA/cUyK3kk5WNiM9ccV0UaqqhVHAGBUwp1FFVNQiaWzlRRk4zj1wc1zYFKBTgKWlxRRijFGKTFGKTFIaaaaRTZbC6uYtsVuzZ5BPA+uTUWl6fdjVUBSSLyX+dscDHbPv8AyNdcKkJBPFNbpUDglCB1xXC3aSrdymWNo2Zi209uf1r6Er5B+Nf/ACWDXP8At3/9J464TccEetWrdGmjcqrEpj8RU6KQ2CMH0NbNpo7ThHcgIOT/AIV6J4Kiis9R8oEruhKooHHUE/y613g604UUUVLAiyHDHpzj1q+oqQU6iimmoJk3oRVMDHFLRRRTH6VnuMMfrULKSa0LGJlHU7fQ9K0EGKkFLRRTW6VzEyBLiRVGFDEAfjTcUUUZpaXBpcUUBc09IHkUkD8+9XI7OIIA67m7nJqVrSBzkxj8OKlEUYQpsXaeoxxT0REXCKqj0AxT6KKM0Gm00gHrXpFfIHxsOPi/rp/69/8A0njrgvmlcBRyeAK2bZ9kksG5fMwCdq4GPyqcPGj7mTcy4OB1P0/Kte/1CW3ggSB9qyjcfUAYx9P/AK1dt4JujeS2kshXzcOGAGM4Br0AUtLQaUDccVfQYUD0FTKKeKWiimmo2qk/Dn60lFFFMbpVGYfvDUkNsTsZ+FatFVA4A4qUCnClooprdKw9TQC7BA5ZQT/KqmKTFLtpdtKBilooxQOtXoRhQc5qwKcKdSinCilxRijFNIphr0ivkH41jPxf13/t3/8ASeOuJhiZpFKDGCDmpppQ90m0EMrcsvpV0yJJIYySBjO4HHNXr1Ibe9tlT5gBvO5uGz0r0TwPbtLNbz7EiCIzlB6HIHT6g16BThRRirNsilCzLk9jVpRUop1FFFNNMbpVKQfOabRRSUxuRVaRN0oBzjFX1UYXA6DA9qlAp4p1FFFIazNTi3IsoA+Xg/T/AD/OsulpcUYpaXFJRSVoRYEagelTCnCnUCnilFOFOCg0u2k2VG8R6gfhXodfIPxqIHxg13P/AE7/APpPHXDCQgDB6dKc5LkSIuGHWuhj0P7RLBLcYVAimSMHkt+HQVZ1y3E32YoVVhkN6gcY/rXQfDh7DT9ftbeKaX7XdwzrOHJ2uRsZMDpwA/XnlvavXdtLiinou5sdquIoAAAwKnUU4U6iiimmmGqs4w31qIUpxjrzTaQ0hoQYbJqwg4p4p4HFLRRRSGq11H5sLJ0yOPrWFS0tFLRRRSYOavQjCAVOKeKWlFLThSg05W5qXtRijFd3XyB8bP8Akr+uf9u//oiOuEC4NPJIPBIrdstWuWiSOSQbhwGI5NWtRZ1vGAAxxkn6CtfwJaLe+KbCdZ/JmgkZmGcNt29vUNkg+n4ivcNtG2jbUkS85q0g4qQU8UtFFBppphqGYZFVulKQMU2kNIafGnc1OKcKdS0UUUhqNuawrhFjuHVPug8c1GKdRRRRRSrwwNXYzmphTxS0opaWilB5qynK0pFJXdV8hfGoZ+L+uH/r3/8ASeOuExgilyN2akV6uvqVxM6MxGFQIRzzjPP15rY0GSe6u7e6hiC3dvMvlP5m0McoADnHHJ7/AMXPAr6JA4o20YzUsa4qcCninCloopDSGmmopBlTVUjBpKQ0lAHNTKMVIBSinClooopDTCKydQgEUwdej849+9VKWiiiiilXlhV2MYFTCnilpwpaKKWrER+Wn0mK7mvkL41f8lf13/t3/wDREdcGHAJzTNj7PMCnZnGfenR5cgZ61MhwcE8VoafHMkqvBuMzMBGF6k54xjnNfTWnXDXumWt1JC0DzQrI0TdUJAJU9OnSrWKQLzUqipRThS0tFFFNNNNRtVZxhqZikxRinKtSinU4U6iiikpCaaao6hGZFQr1XPFZlWYbQyoGLbc9OKabWYPt2E+46U8WUx67R9TQLKYrn5R7ZpRYTEdUHtmmtZTL0Ab6GrVvaiIEvhnP5CneUQeOlOCGnYxRS0opaKWp4hhakoruK+QPjYcfF/Xf+3f/ANJ464ZMOWOAOKYXbHl5OzOcds+tW4oYyFAkxnvjoaljt9rEuPlzhc8bq6Xw5oVpqlywupZ1Ta2PLGACNuOTkf3uw7ete3+EoJbfwxZW08wlkhUxlgc4AJ2joOi4rb20Ypwp9OFOoooopppppjVA45pmKMUmKUCpAKcKcKWiiig0w0hqCUZBqq1vG7AkYPfHeraKFwB0p1GKKKKSjFFI1NpadRS0VYj+7Ts0V3NfIXxqAb4wa6P+vf8A9J464IphyAOO1OAKrjHU1Jt8tlYgEZzim72a6EhGeeAT0rofCusDTLi8F0zraOQC+0sqvzgcDuAfyr3/AMIxlNIdSMESn+QrexSbaXGKcKcKWiiiimmmmmNUbCm7aTFGKTFPFKKcKWiiikNNxSVG4qEjmnr1p9FFFFFFJTW60lLS0tFKBVhRhaXNGa7qvkL41f8AJYdc/wC3f/0RHXEcdKcFG0kn6UEF2VeSOwHWtnw9ZxDU4XuQAqyD74yCMj/69dvJp2mSX2kaVGsQtxKLmSNY1IkCjq3GDkKQfXP0rufAtxCl/q+no7qodJ44ppN7gbQhOSxJHyKecY3D1rtdtG2kxRilFLQKKKKaabTCKaRQRSbaTbRikxSinClooopM0hpppjUwigDBp1FFFFFGKXFRtSUopaWjvUiipM0ZpNwA5Nd7XyD8a/8AksGuc4/49/8A0RHXElMjcPypyHIGevpVmCVIrlZGj3gdQDg/ge1WDfxbbgIsquSvlAkMB656Vq6S8kF/Z3WomW1TG+OZkbDqADgDvkY/OvYfAT29/NPqkEjlZM24DIVyFJORnrnP+ecd3ikxRikxRtpMUYooopDTSKTFIVpNtGKTFG2k20baTFFLRRSUlIRTcUm2k20YxSUUUUUUDpTWptKKXNGacKeDRuoL4HWoWYk5r0avkL41DPxf13/t3/8AREdcMrbV9hTl+b5gc5q7ZRwO7/aJCgC5UgZyfT+dS29osyNcP8lurYZz2/Co0EMjyee87HaBFu5OAABn04A/yK9G+FGuppetvp86sUvmVUYMMI/OO/fIHrwK9020mKMUmKTFGKQrRijFJikIpMUbaQijFIRSbaTFGKTFGKTFG2kIoxSYpMUYpMUmKMU1hgUyiiikope1Nc8UzNLmlpM04Gl3UhamFqYzV6XXhXxB+C3iLxZ471PXLG90qO1uvK2JPLIHG2JEOQEI6qe9cx/wzp4vAIGpaHg/9N5f/jVSRfs7+LEjAOoaJu/67y//ABqpU/Z78VgndqOi9OMTS/8Axuhf2fPFoZv+Jjou09vOl/8AjdX7H4D+JYpH+06hpTR+WVVUmkPPbOY+lS6V8E/Ful6zYXiX+jtDbXUczJ58uWVWBIH7vvXsv9jz/wB+L8z/AIUf2PP/AH4vzP8AhSf2Pcf34vzP+FH9j3H9+L8z/hR/Y9x/fi/M/wCFJ/Y1x/fi/M/4Uf2Ncf34vzP+FJ/Ytx/fi/M/4Uf2Lcf34vzP+FH9i3H9+L8z/hSf2Jcf34vzP+FH9iXP9+L8z/hR/Ylz/fi/M/4Un9h3P9+L8z/hR/Ydz/fi/M/4Un9hXP8Afh/M/wCFH9hXP9+H8z/hR/YVz/z0h/M/4Un9hXP/AD0h/M/4Uf2Ddf8APSH8z/hSf2Ddf89IfzP+FH9gXX/PSH8z/hR/YF1/z0h/M/4Un9gXX/PSH8z/AIUf8I/df89IfzP+FH/CP3X/AD0h/wC+j/hSf8I/df8APSH/AL6P+FH/AAj11/z0h/76P+FJ/wAI9d/89If++j/hR/wj13/z0g/76P8AhSf8I7d/89IP++j/AIUHw5dkf6yD/vo/4VGfDV5/z1g/76P+FJ/wjN5/z1g/76P+FL/wjN5/z1g/76P+FH/CM3n/AD1g/wC+j/hR/wAIzef89YP++j/hR/wjN7/z1t/++j/hR/wjN7/z1g/76P8AhSHwxen/AJa2/wD30f8ACm/8Ite/89bf/vpv8KX/AIRe9/562/8A303+FL/wjF5/z1g/76P+FJ/wi95/z1g/76P+FL/wjF5/z1g/76P+FH/CMXn/AD1g/wC+j/hSHwvef89YP++j/hTT4Wvv+etv/wB9N/hSf8Ipe/8APW3/AO+m/wAK6+v/2Q==;" vertex="1" parent="1">
          <mxGeometry x="980" y="421" width="270" height="225" as="geometry" />
        </mxCell>
        <mxCell id="VGW-gERCkuLHL1JLUqx4-49" value="" style="shape=image;verticalLabelPosition=bottom;labelBackgroundColor=default;verticalAlign=top;aspect=fixed;imageAspect=0;image=data:image/png,/9j/4AAQSkZJRgABAQAAAQABAAD/2wCEAAkGBxMTEhUTExMWFhUXGB8ZGRgYGRsdHxsaGBgaGB8ZGBoaHyggGholGxgdITEiJSkrLi4uGCAzODMtNygtLisBCgoKDg0OGxAQGzUmHyYvLy8tNS01LS8tLy0vLy0vLS0vNS0tLS8vLS0tLS0vLS0tLS0tLS01LS0tLS0tLS0tLf/AABEIAM0A9gMBIgACEQEDEQH/xAAbAAACAwEBAQAAAAAAAAAAAAAEBQIDBgEAB//EAEEQAAECAwUECAQEBQQBBQAAAAECEQADIQQSMUFRBWFxgRMiMpGhscHwBlLR4RRCYvEHI3KCkjOiwtKyFSRDc7P/xAAbAQACAwEBAQAAAAAAAAAAAAACAwEEBQAGB//EADMRAAICAQMCAwYFAwUAAAAAAAECAAMRBBIhMUETUYEFImFxkaEyscHR8BTh8QYzQkNi/9oADAMBAAIRAxEAPwAay2SpWEy2WbwAUAEv+UBSgaYQfLUUS6XErWo1KkgXQBg2JcnXygS0KQkXusmvZKT/ALSzHhBcoomWdJSzpOeIdVXHAxh2ZOM9Mxb2+LY1nrOWKzoQRNKkquDAEMCqgq+GMWTiFLKgxcir6ZhizYho5Z1J6FaHAUo0ZzpXvBjtjQyQSNaauX7s4XYSMk/KIcjaAITeZLa1PPDw84GYsSnrKyLgNvckPFNptab3WvEvkknHwicm3owTfc4UYc3MdTU3XEWPOWyLFfUAWDOSRjzx8d8F7SsQugooXD1bdUkxRZppQoEB1EVffvGJpjE7TaivqkBnyLV3msLsruNo8p6KtlVQQeACePLvgHtn6+UhZ5U0ApF0Zg0IJByIqKwyX2Sc/Z9IBkzrpSlsXzfTcKfWCrTNZOeF4t5Dl5w64sGCkY4mNdZvZmzn7QZRZJUsgAV/cwFtOdZ5rdoq1Qk56uw8YuRaVYmUWdqlmemBFTFxkSjVjLOtAObOPKLFOazu/LtFVsVPunBiC0rKLNMSE0LB1N8wwA+sNdnn+UhwzJAbkIX/ABYsol3LtFN13oWcsO73jF+y5qyDeDDJgRjjjl9YPUMH9+S7FjlusvtaQcQ7F/MR6yzaqH6ceYp4+MTMk8ydMOGsLLPs1aFhQW+JZjXjXfFMBWByZKLzmM1Kp7yH3hVbraEFIxL13DDvqKQTa7xSUpN1Rz+mkJbHZFB74dLuMw+vGOqUAZJkkTQbPBUo7hFtmtyJU0pvdVWO5XzDdr3wLYEEpUAcfYB3fWB5k5+qqX1smPkaQ1GIEYrlEGO815DwsXZClR+XL6RDZFqULsqZi3VOuqTvArvD6Q1MWCAw5lkorgFhE0y8hXSJqwZSXxSMhvGXdnDSTNCgCC4IcGFG1baUqMtKWbM5vp9Yhse1EOFF00qTgTTupHE7TzINqhtkM2pYb7lyymBHMYPgIqTJSJZutTBmxG/zxhsQCGOdDA82T3ZAQLLk5keCN26K7NPCg+GRGh0PvSDEL1hdP6szq1eigMCMv7h73Ey14aZGI4jAVOQDDmBDgvvHukXyV3hXH3WB7GkFxQHNs2jtplEMpHaT4jMHjAoGzmKrRgxzCQWjsQkzAoBQ/Y5g749DMCOxBrQEBhry7390iH/p5SQqn+IPc9RyhZJ29LX1VJUCcxWp0asOekBBCVMeY7xSMw1unwmbkRTbZ81NCkkHG5QcMz6RTI2jKwImdyT5fSHUgdVj7YAcMoGnWGXMPZqDU4HPMVyhi2IBh19RIInZNpl4hR5pUPIRZNtMs4qSd1PI4ecBzdmLT2F8lD1H0gVFmnitxCs3CjnxhyrQ3IadnHSM0LlPQh9xUB4e6xC6jELY4VD+dW5wCpdoALIQ/Ef9o8E2qpdhr1APBzDAta/9n3kbyYZYJ4UpYcEpN0kYYPTvgy2T03iSWGFc2pTWMp8NTCqasvikrL51r5vyjQyrAlRJKirfhmaBsqQq9VW3LGTYpHuiUTrco0Sh+Pmzv5RyXs+YuswsNKftBsySE0SGBGgxYxdPtyUEjFWgy45CO8Z8baxFhfOJNoSEtISlLAzU45sCYbTwQxDNn3iFO0Z6lzZGAqo0DtdSBieOkW2qYpw6iwoWOByJbXwiTUxxmMGMRiQyQ5amsACYhLutLDNxm1PSIXUuCQSSWftGvGGWy7AFzElSOqjrVAxB6tB+pjyg1oGcE8mEhycRdtiR0SkpUUhVFM4rXfmCMtI4EpCeWA4QT8b2MLQiY7FJKS4OCq+Y8YzezlLQQAoFNc6YY7qwdunUDgw3G04jzZ5N29nurhBiEh3bHOFqJimTMSC1XTufHiIYy1AhxUH1iFHAluse6JG2y03XWbteq2LiobfBOxtpCcjK+mih68D5xnviBC0qC3JFA+N1tNBA+yBMCxMljDEnAhqpg8wDawfbiazalhE1P6h2T6HcYXybDdBvVJABGQbIPjjDiyWgTEBSc8QcQcwd4iu3J6pIcsMsTBMM8xhRc7jA9nTyk9EouR2ScwPyk6gd44GGSkggg4GMv05UxBZsBp93h9YrTeFccx6wAcdIK2q5IgH4e5MWGxw5gCnj3R2fLMtrw6p8CTR+P03w8QA7kVwfSK7bKSQQpmNOL5RwXnMGukIxbMVSlkF8xFPxLtdcuQoy+qogdbRy1N7RaqQUMCX0Pod7Z58ortdmTNRdVhQ8CM4gGG3vL7pkLPa1Idq6u+OvH6x6JiQAKmPQkLZjgxVaWhcZldj2OUWfpgoIV0d7qhJODi9edTmgoQz4RR8O7SM5MxMxiqWrtYdUuxOhDHTKL7Rb5/RCUDJUkAJv9JUhISxugUqGPWw4tFWxZUuQhkuuYe0vB9zmt0c8zDipYHj5QLmq2e71+EPXb5QwnoHFQPq/jEpNsRecF96XI44RRaJiS4MuWXxDPzJakKpUqt1Ds+T04mJr0avkHiO0mge5TYSFUd2/SaGdaUGt5JIwDgfeL79GDO1K7sqwFLsgCQCSotUkn6xQbKFOgAMzkfqDnvYDwitdpggyTM8uNxA5hyNCATnjkToR80D7YmtLWS90pusl3dTijuHrjXhAa7Cc1zcPyzFepIgO3WVKQkha1kk9ouzfuImqpG94GR4gi/Zo6KalaqI7KmyCgU5VxI7o0A27KFE3ll2DDuHWqfGEs+U4Phyr5tGlsyVKUgmY0osVAgUFC4LU0LviYsW7GcF4wPvPMVz9ozlUuqQk5JSpzuvEeQEH2GSmUL0wdbEJd2I81PicBvMOdopkXFELcszODidMecILPJSKkpUc7xcHjkecWrtOiqBV6znG2UWidfnpUqrIUqlMSBTXBoIRJapxOILYaYR5c5JnqMxIIEpO8dpZpplQNErLNSoG7vIGYGQijYTjpiA44zKJSSlQAq1U/TujW7MQ0q8QxXVt2X15xmpcozKAVJLVowPm2Ii2fYpyVgSzMTdyBUEnBVbvVaqnriYtaWvd7zdRxLWkr3AkmM9qovIKCzEEsQ7kVb1jH9KC7YOz6tDVE+ey2Wo5knFPWFf0FsU9Wl6gCXhb+FuqIIzemjOPDzgdZXgBvSM1Ne3vmE2m23EBCaFqq3mtO/GA9i28oV0Sy6fyq9FfWGe0LCJiGaoDcYX7P2GEPeJOgOCfqYSgI6yNtm8eUdzpQUCDUGIyJIACUgACjDKKbJNI/lqLqGB+YfUZ98Wz0lixYs1IKWYMvaKJE2inekxIy0V/UPLlGgSoEAguDUH1jCfhqsp7w5vjprGm2SqZLSEzQyT2crp0UMny38YlW5xFV2FmIInV7HeYSkgINTu4Df4VgifYroBQKp8RmDx+kGgtAe1tolDJSmpDucBw1P2iSAvMnateWltknXg/vgd4im32clSF1N01G7UcM9w3QvsNsIL4g4tXnxEPEqzEACGGJ2VtWB2tYCS/cMX3QsslpvCoZQooabxuMMLZZ2qMPKEkxQTOSEllEEnQpGIPNmiMYE5QEHJjZnj0UomU3e6R6JjZTKly3AJDCpoK6B3z9DELShTX2YEtTBmpdPL9oNsAvUJAILhgwPdmN26IqkpV1Os+bgqLjQh/GKwsbcQOszqdiurMMjIzBJxFMqZercYCngUDpAyCi3k8N5MkENfyegccTmOekUWqxutKL4cpKgGOA9foYt6GwIArnnn4z0SazTFshwPLKkyyxJASEhd5R7hwfcIJUoIKQk1Bdv7hU8Yr2fZkpR1jeapbEOwDMXb7xNVlSm+oYmhLn8r674RqnFjc9J5vUnNrNu3c9emfTtPWucEAE0GZ38WpzhHbJ4WtwzNiC+ZzHukaS0CpDAgu/fwqIz1usYlgLcBKlBIDHqv6AAmB0qg9uYhlyeJSn086/SHmypqwgBnCaEZ6gjWhEDL2Sp2CgSMaNj+0dFtXIbpUHowkC8lixvKNRwIHIcA69CRgjnyMlIbMAmTZbOAeq5GDvWj8OcPJuypaZZ6RWAcklgG3acYzCNpy5hVdCrrjrXaVzOLFx4Q7m7BSuqgqmFcvWNHRuy17V7faPU/CZ/Zs0pXMKUkvdSAQwIuuMcMYLQiUtRoqVMH6c94FFDuimzS0o6UnHpCAAcLrYAkkYOX3RdJtSZiXWGORGZJoNx8Iz7a3ZmYDvj1M7a2MmTVYJjBTKuqxugmoIrSvhlwj3TT0rSi8XSyblK1ZjmXDG9vdwzF1I2gAlmolNVOdQBRjU3hzeB17USci7tdFTgDhoxFd+saaVlFC46S9U4RAuBM6q1z1IWlSyQpO4YpBOGDlxXQ5xba5/SCXMPaUClYNCFpoXGUORtCR3kP1Fdp2D9XtPrCq0Sgu0qWl7rA1NCtk5Y3ilQ/xMDqK99RBHTmdZh+gx/P59ZdImhQBESnzglBUp2AdgHPCF9onJlTGvdrEfKddz598MUlx5xnZjM56TPWm3qWoEdW72QMt51MOrFaBMS+YoRCe12NKZrX0pSaviRuYVJg5EyWluhSt81FusM3r6U74FQ2eYmsPuOYwsyUpmBRAOT/Lv96wfbgi4orICWqThCZW0EYKcQBtdRmBPXJCfynJ828IZnAjWO0EgR1sbaSZrpBJKaAmhUNSNW78YNtMgLSx5HQxi9nlQWFIdx4cY2NgtYmJdmIopOh+hxEQrZGDF1P4i8iKpdiKHvfXm8d2faig9GaJJ6hOX6eeXdpDe0ybw3j20IrUCWYZ4b8oFsLJJWocCPZMwLTuPusIrXYwbXUG6JNCKOTMOYxNPGDNn250se0Md4+b6wya8PIx34hIZRYuRM9PKpXZALnAk9/HKPQbMs1etjHo4DAjEXaMTstkvRwnjU1qoh2SNREkTVkEGgJqxx5kuzZQSJCgaS5gIyZyODYiKfw08l+gKQ9Q1SODsIXXRZYx4+sofACCzEAgJCs9MeVX9IR2hbWqlAlkd446q4RpJtgmnrKlqQkOdWatd3DTuxInEuvMkq7y8aaLUjA19uufP8vpJqUmaWbeSAQu4dymPdmOTQZYr6nvlroZmZzqeULpexZ/aCCGZTuOTVh0izFgspW47V4aAsScIH2mgOHUgnvj+feJdD1nJqlqCShne6Qc3IS78fOA/wCICEIRIlpFSVKJzYAAf+RgjZ6iUpYEssLNKEAuz6ux5Qo+MrQZ1pokgIQE9Y5l14ZdoQvSKUqLeZhUFerdZrdg2ZC7OhZdSlpClKON5mIByAIIaAdqMgnMJNd4wLvugL4X2x0cjozdBClXXOvWw3Enwh5YbOZl5S63gWORvUMaX4q23HgidaqswVRMpaLPKS3RuhyHrSpoRUkVMalO3VnBKN1Sfo8YbaFpWWCglKgqoTgCDT68zDOcq2zCFJlJqLw0Yiih16UihQhwfewfrNDUez7qKUcnls5+Hl9pRtRSxKmzUkE3iTTC8oh69zQf8H7OM+QlalFqvQNeClJCaYhqnjjWifawUJSUTEqSq9VKS5JGZwfhk8aj4EWDZkpReAQtbvqTeIoT81BDUDLgE89fWAtDIgJ7xftazzpC0ovFXSqABfEg4KfAuQcWx0pDbGy5yEi4CbyQFFGIW5q2JDqpwrDH41tTJloSHmdIlaSxYXXFSNTkK4wJLtVrBTMmoeWZnWSA5SCGCkjG4CXY1dO94vC1mAPHf1kinAJgn4SfdBAJXmml4dllKrUlsAaU5DykzDNAUgpKaM9Xah3G6RyAjYGXdXeJATU4bgDXSFG12BE10haWCg+IxSXZrww3jgIQ9xZCMCWNKKktBsP+ZlZ6STmNX84tTPmKTcSVMKUz3EjKPWy0JvKDB1ElhriSd0Ll2idUJURuTTuIrGXXUB0ihUqE4j6w7Mp1nfRPnFlpkhLMSKgYvzaM6TNAAvFyHe8cIefDdvmTJKwSFFGBONTmdK84Nk4zDB5xK7Ss4FtQ5y88olZa5h9HHphCba0y/NUxID0bvq0QFnIL3SC3s1iPD4hbuZpJc24/edPe+JJtolqExLuaKTWqcfDEHLmYQ2e9kojcXbuyg8ryWwUcWrx38oWVIkN04m0kzQoBSS4NQfecC2yyO5FHx7sYUbKthlAlZHRk4v2T83DB+/KNFejvxDmLA3r7wmftCLrdH2gXvanfuybfBtithJBZkmhHyq0O45GIbU/lhwl7xYcdDCbYdrUVTL1euruSq7d3M1IAnEHxFQ7Zotq2DpkgBV0g4s7jhHoUzNorlkpvUxSq67g5VIYiPQWYxqFY5MZL2msKC3YKpXXEH7d8e/8AXlJ9t5QrlDpbOKtco51Fe9otlSkqQFBL6qVQPnSNEDIzBuqNVjIexl+2viFf4aa2aSnD5ur6xn9sou2iYgIShlkBCQAAMm4ir74NJSZ0hK1i4JgUqjBkkHnXyiz4rKJs8rlqBBQHIeqg4z3NAswEQXUd4/2JbxMlJvEgh0moYVJFSXjtutKeiVdW5IbGMAFLQcaHuxoaw3sM3+WSo1mKLD+kORyJPdCbnxUfjFOSU4mi2GkGWXUUsRrm/wBIy1pmXpi1YgqJ5A08Ghmbb0co6qFM6iuv1hJJOA90r5tCkbNSiVyfcUR18LSyJ5TeIStJP9ycf9pV3RodrWroJLOekLhOGGau4tzjK2GaULRMGAV50I7iY5ta2mYok6MOAw974b4pC4m/7E0h1Nm5/wAK9fj5D+doqtCutG52AoGzSpjDqXkq7WCSdKdmMDMVWG9j2z0VlmynIvqSxAdge0Wz7KRziamwZu+16/Epz5EH9IP8QOsv2gXdjgXKnLEFqtpV8odfBFonpCm/0LxJdIPWZIDE9YOBgHAusIy9lnrKqkK0UltcCBhGg2btIJQWqFKF7eBgGOBY14w0kMSx4PlMK8YrBA46TXTtoj5kJ1Yu3+RDQFNtKS/8wn+lQHhf9c4ukbXl4JQpLbw3J4JO2hvjNOv/APP8+kzWq3dST6zMbSmJBSQSXdNVISKh8QVKOGTYwntlpJF9SAGABFS5GRKqnXSkbe3bTR0ZIYHEDUggx872pNUtd16Cp4n34w+vUeMu3GPXt9odVSrziRlS3dShvrjrHgakAFjU4logXCQo0TQAnjVvLmIQKsilzwrpikCqSHvDcnId8OUAmObgTV2dwrq3VMagiopvi74fpKtJ1UNK0JIHvKFs+clSwMHL99TDKxi7ZJqtZhbgw+vhAMOJPeL1M5D4q0x9YIVLugqWpTJGODcXiuzpJW4FQHHpzdoEtNtEyUqRMerVzBD+sTjMiE2PaUpd4BbvqxrvIi5VkdN5KgWOWXv6RnNjWOXLmdZRrqCmnLGNPZrSgy5iUEm5dIOoNC3AjxjnXb0nKc9YVYVAqCFpd6CrVwxYtWnODJtlKCwnTpVCWUosAN5cNxaFctym9orzENpO2+qy+s9GP3gFcLwRkRw3EYB+oz/iUWv8UkMqYFJN1r6QA5NGUA2ObwJIVOlikh3JqKmqiTUPm8aKyy5UwGYkqlqZKjdNC7g3kmhwesWIsKwkAALqQ8o3S+J6h6p1o0S4rPSVV1FZbFyeq/sf3mRFuDlK0qId7pNQTix0OYjkamaMlXFNlMFxQ5KoeIMehe0S+p0xHFo9QYi2Ta7hNAXFHyP7RcgqKyDgajSFclbF4fzrMVJC0VbrCgz3YDnFupuMS17coxYLR0P5j+0X2hKAq6STMJ6qUgmjOVHc7j+08YLRsuYUvQbjj5Uhr0lmllV9R6Wl4pBVlQOAxxy1ihe1pY+bu+8d4VZJ3OBPMvU5OQpmd2vK6MISpnclwcE0oxGpd4En2khUsZIDcyXUe8mGu07ZLmOwqnB28xwjN2guTAOq8AHInoPZOlIqa2xeeQP1P6fWaa3yCuWkJDkKfwMDyrBMobhcjw4Y5ww2Gq/KzcBu77Vhp+HKEKnTOqwuoTrnXQk9wELpoJrJ3AYOJgtpbPH8FRk5x94iRMKUFJGJeoqKNyendAE9UE2ma7k4mAZpgBPoui0i6TTrUPX4n+faDzDnElAEF9NH7w4fviMXyZV4gM4OPDODEG6surL5wYSBLlqW9VUFCGGZrU6ct8FWKYLmdQPBx5EQFtea7JFAKAaAe/CHXwOEKnJStqpUBxAvU0ok9whw6Z855zVEDdSvRQPrnn85p7NOUZaaLZhQIAGGufhA09BUWYw3XZ0XiQEhsyop8E1PMwTKkpJZufv1jCu9ywj4zLmTt1iMsJUou5YDk8Z60pCVsKk1J3vhuGEan4utCTOlS0ENLClTNahk04xl5ZvXgcde+LumztzHKPdlu0LOZkoFBBIUXD6tgNGEIU7NmguQEs2J+7w0s6iHqxf3hBkyXeDuScTv9vFtSRxOIzAbLZEpGZUqhUchn4Yw6tablllD8qheI/qJU/dlugQSv5gBLuAHz6zDnjDDbYKgorwcBAA/KkUYE4EF+cR1kdIvs6QEOMyBeJwKQ90aUI7oWW7Zilm8CEknLA8Q7iGWzUhi4F4VBVgKtnnFM609YggGpweukEAQeIORFS9mTB2inXMwbs6RcZi1Q7vlwg+daAoAvjzw1jnQ3SKu4eme7hhEFuOZOJclACJlWDgjCjP75QvXaAH4OK6iDrQjqFJqGr9IQqUkNLCbpSABVwU4A1qCDRoAcmGDiaixzKKAVjcA7/vDOyWlSGIIe8VAh8xdfu1jObOd2c9vwCX9IcSVOQBofAgQuwdRKYUbgT5x6vaqzQpSpvmAPnHoEnoIwjkZ4JHSFgTISFOAY0mxVhcsoNWo25Xs+EKrfYwhKCkUIu8057yQfCLNiTymYP1UPPDxaNQNnkT1W9NdoA4+fqI9Rs6SMJMr/BPHMRP8JLcES5YIN4MhIqQRphXDBwDlF0B7WtFxBbFVB6n3rHb285hVUG1wi9TM7tu0JKjdYJfAAAYuSw1LmEZMF2tcLzMDwxQZ6S3bUAi9BxNR8L2q7MKfmHoR5E90MttbRVMLEhk4NrrGR2fabq0q0I7sD4Ew3tMwpVdVQ5aKGqTnwxHjAsCPWK0ddJ1ZsPUjj59D9h+crWXwgVZhxsqzu8wiiaJ3qOfIHvIhZteQUT1Adk1HA183HKFBgW2x59pI2rOmXkgZP7emQYMIOlJuoc4ny91imzSXNcM47a54fC9okv1joWZhmajBs4NRk4lq+5aKjY3aKLXeUStjddnYtwfB90Mfhy0iXOQpVA+PEFPrA1oSuYQVqwwAAAA0SkMByEWykAENkX7v2ixvHQTxeltOovYA8sDN4LWFK6lwsKk1bvDPzhlLtND1hho32jMTJJABAoK5Yc0qfgGNcdapm3SKJCuIS/8A+hI5hoqPpVtbf+0rlbc4USvacodOsgkmYQTnW6E3eDJfmYBXLCVUqSKgZUwi6z20zJt9ROQq2Tj8tIvNjdC5gpi29qnkB4wJGxsSwWCIN8SiUScWHn9vpBcsFyN2sesaCsjSrcffnB0iyBKSVVL8CXD07odunESvY0sKndbAAqPAD9o9tC2BaHHzlVQQySwSDyAoIt2cQlM5agSOiu9Vn62e6rDnA1tlpMi+MSsBQ0wrwJMHWM5MFjiD2OSQXUcwC54EUzeK7RdvqIw984NSspCS5qA9NB7xivonDZ+8ojd3MHEEkSiaEFsu7CkFSUMyrxTdIG8uDhyEcll0sz5NQVg/oelmq+UAaaDTdAlueYYEr2kyUJriHJwxPnGV2vMZSGLU0fONJtmYDQVGHIRmNoyxeD5UqW1MFUuXkPnHEcfDs8kqJIISCcCMTv3JMEfDVuMxbFuw9FPioHSBdlywmyTVijuHvPuo+HbMX/C9mCZiiL3YArdbEHERLoMMcSuM5EeS9shQqhXIp9VCPRLZGxrLIsaZ8+UJilrKReCgyQ7dUb0kvvj0JGlU9JAV/OcnSCuzqbFPWHKp7w45xDYlkSEiY94nClE5U37/ACeGGy6hq+X7wJsoXFzZB/Kp0/0n2O+E0tyRHeydQx09lIPT3vQ8H9Izvxm9s2u+stgKD6w52pOuIJzNB9e6MlaJkPHWek9k0bQb2+Q/X9vrALbNygJJgm0IJJgdUtosrjGJU1ZsNpftCrPgeEbjZgTOkJStIV+VQIcUwd9zRhbOaGN38MySiUqYqgOD6JFVHy5QnUPtXMr6q5F0hsPUYx8Tk/5l05KUBMtAZKati7vmTiSXr+we39mzJnRqlBBIBCrxu4FwzA6nwi2ao3lVchTgfpy9YZWpzJU2N1/r4RQVsMCZ5v2fqHr1aOGwScE/Pjn6zLdlNcc2L13HOASp3O+DQCtd3JnJ0AxMDWuQUG6Wceow4xcOZ6j/AFNqwqLp1+Z/T69YIYsSGI4RXF6hgYkHBmJ7FbGtT1/IzWbNLykHc3MU9Iot0uShJM1PV7gDpSO/Dsx5ZGivMP8AWD7VZ0zElCxeSoMRuglYqczVuzVcwHnMzs9MufOaSGQcdwAqfeZjRKQm+lI7IF0bh784p2DsQWOUpIVeUtRJUR+V+qnux3k7osk9p4p3OHckdJ5vW6o3WcdBEEl0PqCQcq1HpE+lCgRXq4bwTXHP6RZteWBOUkZm93183iCpZTXEYEYPrFhTkZmwr71DecQq+J0ylTZSknr0vYMzZZiggW1/EcsC4hKllRZ8mBGlXpGjmbGlzVXlIpvPhxiqdsmTL7KACN7+UOWxRIKsZyxLKkJUtJSflpRjSueMHdDVThgWugHJmfDdAomgulRYNS6PQNFiJ5CcQeONNN1fCFmSBzOKDJLAnU5aNxhtImgC41UjFmrm++F9kldMwPZHWfefs2EE24XUkg1fHh784EDJxDzEe0pnKAgL13l5RK1zL0Rl4pG8CLenHvZjae5+EPtckCyJQ3aqfFXm0XfD0m7MmUAADU/tMWbaT2U6JP8AxHpBey0VWd//ABTEv/sk+efzilAyYx+LGlyrLZy/UluakVoK1rUKj0VfFKektCyfysn/ABx/3Ex6BU8SwlY2jIl2zlkpcUwgbbf8udKnDA9RXmPM/wCMS2GskEHKDNs2TpZK0gdZnT/Umo78OcZQOx5532deKNSpb8J4PyPH95ntrWy+rFwKD6wrXBdvsypZrVJwVvOR3vhrxgNRi5jmfSqLKzQor6AQdaBjnAy4MiN0Au2UMVpR1NYK+Qk9ibPVOmplij1UdEjE+nEiPoNvmBCAkAAdkDQYD0gP4X2f0Uq+oMuYAa5JyHi/PdF+0U3hvGEUL7d747CeH9q6oW3bEPurxFiJB6UK1QyuIYjw8odWEAp5MffvEwoTaCwyL/XDnDiyPdD5wL5xzM05xMvOK7OpLdU9I145gKa6aHq3XUdzaQLtVJ6RZKWBUSKUYmgHLKNPtEIKriqlYIAOYwIHLLfFM6yrY9UsMXjQ2FkUpLuq1r6p99nUzHpx95wQoQ4lWRBrcFTpy9PGCNrSLkrssxFPCONNgI4jfZtoTV1n4j7wXYE8JKgSwI8R+8aaxsrrAggecZfY0hRmgJyz3ftGvmlgw0itfZt4HWav+oNQq2bUPJA9IJblaY+HP3rAkgVjs2c5OkekprFYDE8tFfxTLCVy5jsCCknhUeZ7oS2jaolgX1lLjmRhRONfZjT/ABCf5TsFXWLGu6MvtWxyLQ02aFpUzG6SMNAQRFykjABm9o2JpHwg0/4vQ4CJJV/UpgeIT5PAVo+MFrNZMth8t4eJJi+d8MWYVSueaZ3A27AmBZPw7IYOqZezDpAfQFothUxmOJaSHxMlQZSSkg40I8ADDqxzjMQkhRUnJsNCMHFdYHs+xLGl/wCSVEB3WtR7wC3hDWzLllHRpHRhP5ZaWFcmz8c4UzL/AMRDAPeNtm2L+XdvpScy7GnAbo7tDYapgCUz5QbEqUf+sCSEuaPl5QSJcAvEU1hBxAZfwevO0Wf/ACOHdHrL8MF0TRaJC0ghbJUXUBkHA8YJUhmA4aw22Ts+QzKyGGlKBsBDQ5HSStzAYEWW74fXMN7ppAF1mKi4wxYEYg98E2bZJl3iZspT5Be4DMDSNDL2ZZlUCUnP33xK17JR0aujQHagDCsFuJTb2kC1pnbZZQCVKnSgSXLrzLnSPQP0ZSWNMcaEVoG94R6A8QiO/qXlWxXctu9e/wC8N7PMclh1Uhscyz8WaEVkkqfqkgHSH9jlhKQnTHnGfZjrPNNKJsgFwRQ+RhRbPh1CuwSjc15PcSD3EQ/mYxUTFmp8qDPSaTUsawwPzmWX8PzgaFCxxKfRUG2DYKlTUld0oFSHJPDBqnweHRVB0tN0b84G63avxMnXe07Vr/FyeO09OWGeF1oOMW7QLoLY490LpFqvFjj5xTVeMzy4GeZTax10pFAa+QMNpU4VqOUL5lmvKQkZu5NS3s+WkdslBTB4fgECM4IjOyIC1hasZalN/ckAwfODgg4GkL7GSkqGZAUdxL+giK9ro0PhFigFshe0ZU4HBnbPY0oLY3cCeEFbQYoS7EP6GENm2q14qBLkkbnygrZlqM9b4JQGpgSfflFmzKEu/aH4ypgiHyJTVzP7x61zWBi5ZFPDu990A22qWjJLF2yZWew2PubvF0qbfDjU+BaDpZYQNYpQSGGtB4wZLTBN1nMeYLaUX3BoCkgc6PGB/EkFm6wxdsRSvOPoYkkrD0LRg/ieWJVsmpwvG+OC6/8Ak/dFukj8M0tFZg7Zci0qbJz5d0TkrUiqlO5oKU96QsE/ifSK0W0s7cHh+OMTSzG063OSxYwvl2xQLvWBVTw97M+cUmpqaEYD1jgmJxabvYloCpYNav5w1YnNhpv9+cZDYm1QiWkM4A4Ykw6G3Et2T9oSeDiJYE8w6ayU6BI7h9GgS12haQWJ5mBztlBaihTBn8YHn7SlqGY5fT3WCBnbTLpW11IUCF1GNY3+zNqJmSwsM7OwO5yO6PlH4iXef0MaTY+10JSkXiMfBX38YnIE4qZqdryekUCgsrlUfanfHoz87byGHXOWAPpHo4kSQDC7IkCgg9CffOAJRg2WYzTPPyNoNDA7RfaDRtae+URIizp84mroM7D5SEgAqDjA+OsFWiaBlm33ga73RydOIBvAkfMKt/UBVt456xF9ZYgiDraXfDCcmzRg/wB4AtSbxBFFDD76iO3qullA/mSQREgtqk8YUFx0maBiWpUyCoi6QHPL0pEtnyqB8g59+8IBts/so1NfRI3kiGyklKWSKt6P50pE9B84WMCdlDtKzUfIMPAQLPsyFOWD5xYqb0aBfPWNWGZ0G4UHKKLKu85ar+xDKFbcSOks6MHeSekBm7PGkO9lSwmWAOfGr+MUNE5Cynhp6iG3ozLLOqq8RMLC1H3zgeZHpinqkt7z0gNc1YyHd70ikqzJCmd6Mk6Vc8jBkuBJU4nLxi3pCNBBkGSYSB1huHr9oznx5sfpEdOgfzEJqM1IxI4pckc4bybT1n0i3a1ou3BmT4Njww74bWSjiP0xItExX8OLFKnTpvSoTMSmWOqoOHJxxxp4xsLZI2dKUlKrCmod0igAITXrPioCjwv+FNmiRbJzBkTEBSdzK6yeRNNxGkPdrIXeBlqlJF1iJjN2gQWul8DnGrVtZuZquSDFYGxyayJQ+UlMwXqAm7wBD6cIIRYNlEXhZkgYglM0OKVDjCsWWOzTAQlSpCgxZkpoyVMR1e09x8cDQZ1WaRPcJ6Szrf8ASOtjTsUphw5RYNdfb+faBuaFWbZVgUyEWYUH6wAAAc2yUn/IRh/jJSJFqMuWi6m4lTOTUvrwjfWCzWhKh0ipRSzEpSyiGo5atW0j59/EEf8Avzh/pI/5RVtRI6nluYqNuBah74pXbN3j9o9d3ZeOmERXJZ90VwFlvavlKzajoIOsVvbEYAwsBBLNB9nkdU76chiYJguOZxUS07RoAEgR6KhJqaR6IwskIJ9DlrOQVzSR5gQQuepIHV793D6x0k6xFic4reEsy10SDrzOWV1Kc1MGCKrIhoKCIYMCW1UAYErYRy6Ym+G/6P6RNomTiVLs0tWKeeBrvFYHtGzwA6SoePmCYNIiJESSD1EBqUbqJl1WC0AuDKLFxelGh+YdfHfBCJdoPbmmmSUpSD5nxh4oY7gD3xUEgxG0eUD+mr8oqTZCHOuJLk8yawXY5JEEFEcQYNGI6QzWuMSYRuMRdsYtTMgWbanXdbDfueGBt3GIJTHOZYtIOAL6jHwisyZgwIVuULp7wCPCLJM+mEdXa2/L4/aE2VLnGJBoSwZcQUyirqqlkA5ghu8EEd0Wqs7NTs4ZkUah4RwW8H8vj9o9Mtzh28ftAioCL/oq4IoTEqdKUcVFR/2hvOOplKJKlqvKOeFNAMhFxtA+Xx+0VKtgH5fH7RITngRtenRDkCMrKvA5wSuYq+ghTJHaDO/h9IRDa4T+R/7vtDvZcwzZYXRIchmJwIGLj5tMosVHBwYVi95aha3/ANRLf/WX34Fnj1+a3+ojj0Z+rQT+GV8ycflOv9UdXZlY3k4P2T/2h+8eX5ROJxE+gvFzmQCByEfK/wCI6x+NJCm/lo9Y+ppsyqC8mv6To/zRndv/AANLtU4zFzVA3QOqMk8SYAkQ1O05nyxFpUA14tElTiaPTNtfWN9Z/wCG9nIczZuLfl/6x4fw5s5LdLOx1R/1gdojvFmIs90JbVnOf7QSi18APSNef4aWcf8AzTv9n/WOp/h3JBYTpnMJ9AIA1g9ZHizJ7Os0ycSJaSc2A5V749G+svw4mULqVluA8Y9EYheKZ//Z;shadow=1;shadowOpacity=80;" vertex="1" parent="1">
          <mxGeometry x="110" y="202" width="262.79" height="219" as="geometry" />
        </mxCell>
        <mxCell id="VGW-gERCkuLHL1JLUqx4-9" value="" style="shape=image;verticalLabelPosition=bottom;labelBackgroundColor=default;verticalAlign=top;aspect=fixed;imageAspect=0;image=data:image/png,/9j/4AAQSkZJRgABAQAAAQABAAD/2wCEAAkGBxMTEhUTExMWFhUXGB8ZGRgYGRsdHxsaGBgaGB8ZGBoaHyggGholGxgdITEiJSkrLi4uGCAzODMtNygtLisBCgoKDg0OGxAQGzUmHyYvLy8tNS01LS8tLy0vLy0vLS0vNS0tLS8vLS0tLS0vLS0tLS0tLS01LS0tLS0tLS0tLf/AABEIAM0A9gMBIgACEQEDEQH/xAAbAAACAwEBAQAAAAAAAAAAAAAEBQIDBgEAB//EAEEQAAECAwUECAQEBQQBBQAAAAECEQADIQQSMUFRBWFxgRMiMpGhscHwBlLR4RRCYvEHI3KCkjOiwtKyFSRDc7P/xAAbAQACAwEBAQAAAAAAAAAAAAACAwEEBQAGB//EADMRAAICAQMCAwYFAwUAAAAAAAECAAMRBBIhMUETUYEFImFxkaEyscHR8BTh8QYzQkNi/9oADAMBAAIRAxEAPwAay2SpWEy2WbwAUAEv+UBSgaYQfLUUS6XErWo1KkgXQBg2JcnXygS0KQkXusmvZKT/ALSzHhBcoomWdJSzpOeIdVXHAxh2ZOM9Mxb2+LY1nrOWKzoQRNKkquDAEMCqgq+GMWTiFLKgxcir6ZhizYho5Z1J6FaHAUo0ZzpXvBjtjQyQSNaauX7s4XYSMk/KIcjaAITeZLa1PPDw84GYsSnrKyLgNvckPFNptab3WvEvkknHwicm3owTfc4UYc3MdTU3XEWPOWyLFfUAWDOSRjzx8d8F7SsQugooXD1bdUkxRZppQoEB1EVffvGJpjE7TaivqkBnyLV3msLsruNo8p6KtlVQQeACePLvgHtn6+UhZ5U0ApF0Zg0IJByIqKwyX2Sc/Z9IBkzrpSlsXzfTcKfWCrTNZOeF4t5Dl5w64sGCkY4mNdZvZmzn7QZRZJUsgAV/cwFtOdZ5rdoq1Qk56uw8YuRaVYmUWdqlmemBFTFxkSjVjLOtAObOPKLFOazu/LtFVsVPunBiC0rKLNMSE0LB1N8wwA+sNdnn+UhwzJAbkIX/ABYsol3LtFN13oWcsO73jF+y5qyDeDDJgRjjjl9YPUMH9+S7FjlusvtaQcQ7F/MR6yzaqH6ceYp4+MTMk8ydMOGsLLPs1aFhQW+JZjXjXfFMBWByZKLzmM1Kp7yH3hVbraEFIxL13DDvqKQTa7xSUpN1Rz+mkJbHZFB74dLuMw+vGOqUAZJkkTQbPBUo7hFtmtyJU0pvdVWO5XzDdr3wLYEEpUAcfYB3fWB5k5+qqX1smPkaQ1GIEYrlEGO815DwsXZClR+XL6RDZFqULsqZi3VOuqTvArvD6Q1MWCAw5lkorgFhE0y8hXSJqwZSXxSMhvGXdnDSTNCgCC4IcGFG1baUqMtKWbM5vp9Yhse1EOFF00qTgTTupHE7TzINqhtkM2pYb7lyymBHMYPgIqTJSJZutTBmxG/zxhsQCGOdDA82T3ZAQLLk5keCN26K7NPCg+GRGh0PvSDEL1hdP6szq1eigMCMv7h73Ey14aZGI4jAVOQDDmBDgvvHukXyV3hXH3WB7GkFxQHNs2jtplEMpHaT4jMHjAoGzmKrRgxzCQWjsQkzAoBQ/Y5g749DMCOxBrQEBhry7390iH/p5SQqn+IPc9RyhZJ29LX1VJUCcxWp0asOekBBCVMeY7xSMw1unwmbkRTbZ81NCkkHG5QcMz6RTI2jKwImdyT5fSHUgdVj7YAcMoGnWGXMPZqDU4HPMVyhi2IBh19RIInZNpl4hR5pUPIRZNtMs4qSd1PI4ecBzdmLT2F8lD1H0gVFmnitxCs3CjnxhyrQ3IadnHSM0LlPQh9xUB4e6xC6jELY4VD+dW5wCpdoALIQ/Ef9o8E2qpdhr1APBzDAta/9n3kbyYZYJ4UpYcEpN0kYYPTvgy2T03iSWGFc2pTWMp8NTCqasvikrL51r5vyjQyrAlRJKirfhmaBsqQq9VW3LGTYpHuiUTrco0Sh+Pmzv5RyXs+YuswsNKftBsySE0SGBGgxYxdPtyUEjFWgy45CO8Z8baxFhfOJNoSEtISlLAzU45sCYbTwQxDNn3iFO0Z6lzZGAqo0DtdSBieOkW2qYpw6iwoWOByJbXwiTUxxmMGMRiQyQ5amsACYhLutLDNxm1PSIXUuCQSSWftGvGGWy7AFzElSOqjrVAxB6tB+pjyg1oGcE8mEhycRdtiR0SkpUUhVFM4rXfmCMtI4EpCeWA4QT8b2MLQiY7FJKS4OCq+Y8YzezlLQQAoFNc6YY7qwdunUDgw3G04jzZ5N29nurhBiEh3bHOFqJimTMSC1XTufHiIYy1AhxUH1iFHAluse6JG2y03XWbteq2LiobfBOxtpCcjK+mih68D5xnviBC0qC3JFA+N1tNBA+yBMCxMljDEnAhqpg8wDawfbiazalhE1P6h2T6HcYXybDdBvVJABGQbIPjjDiyWgTEBSc8QcQcwd4iu3J6pIcsMsTBMM8xhRc7jA9nTyk9EouR2ScwPyk6gd44GGSkggg4GMv05UxBZsBp93h9YrTeFccx6wAcdIK2q5IgH4e5MWGxw5gCnj3R2fLMtrw6p8CTR+P03w8QA7kVwfSK7bKSQQpmNOL5RwXnMGukIxbMVSlkF8xFPxLtdcuQoy+qogdbRy1N7RaqQUMCX0Pod7Z58ortdmTNRdVhQ8CM4gGG3vL7pkLPa1Idq6u+OvH6x6JiQAKmPQkLZjgxVaWhcZldj2OUWfpgoIV0d7qhJODi9edTmgoQz4RR8O7SM5MxMxiqWrtYdUuxOhDHTKL7Rb5/RCUDJUkAJv9JUhISxugUqGPWw4tFWxZUuQhkuuYe0vB9zmt0c8zDipYHj5QLmq2e71+EPXb5QwnoHFQPq/jEpNsRecF96XI44RRaJiS4MuWXxDPzJakKpUqt1Ds+T04mJr0avkHiO0mge5TYSFUd2/SaGdaUGt5JIwDgfeL79GDO1K7sqwFLsgCQCSotUkn6xQbKFOgAMzkfqDnvYDwitdpggyTM8uNxA5hyNCATnjkToR80D7YmtLWS90pusl3dTijuHrjXhAa7Cc1zcPyzFepIgO3WVKQkha1kk9ouzfuImqpG94GR4gi/Zo6KalaqI7KmyCgU5VxI7o0A27KFE3ll2DDuHWqfGEs+U4Phyr5tGlsyVKUgmY0osVAgUFC4LU0LviYsW7GcF4wPvPMVz9ozlUuqQk5JSpzuvEeQEH2GSmUL0wdbEJd2I81PicBvMOdopkXFELcszODidMecILPJSKkpUc7xcHjkecWrtOiqBV6znG2UWidfnpUqrIUqlMSBTXBoIRJapxOILYaYR5c5JnqMxIIEpO8dpZpplQNErLNSoG7vIGYGQijYTjpiA44zKJSSlQAq1U/TujW7MQ0q8QxXVt2X15xmpcozKAVJLVowPm2Ii2fYpyVgSzMTdyBUEnBVbvVaqnriYtaWvd7zdRxLWkr3AkmM9qovIKCzEEsQ7kVb1jH9KC7YOz6tDVE+ey2Wo5knFPWFf0FsU9Wl6gCXhb+FuqIIzemjOPDzgdZXgBvSM1Ne3vmE2m23EBCaFqq3mtO/GA9i28oV0Sy6fyq9FfWGe0LCJiGaoDcYX7P2GEPeJOgOCfqYSgI6yNtm8eUdzpQUCDUGIyJIACUgACjDKKbJNI/lqLqGB+YfUZ98Wz0lixYs1IKWYMvaKJE2inekxIy0V/UPLlGgSoEAguDUH1jCfhqsp7w5vjprGm2SqZLSEzQyT2crp0UMny38YlW5xFV2FmIInV7HeYSkgINTu4Df4VgifYroBQKp8RmDx+kGgtAe1tolDJSmpDucBw1P2iSAvMnateWltknXg/vgd4im32clSF1N01G7UcM9w3QvsNsIL4g4tXnxEPEqzEACGGJ2VtWB2tYCS/cMX3QsslpvCoZQooabxuMMLZZ2qMPKEkxQTOSEllEEnQpGIPNmiMYE5QEHJjZnj0UomU3e6R6JjZTKly3AJDCpoK6B3z9DELShTX2YEtTBmpdPL9oNsAvUJAILhgwPdmN26IqkpV1Os+bgqLjQh/GKwsbcQOszqdiurMMjIzBJxFMqZercYCngUDpAyCi3k8N5MkENfyegccTmOekUWqxutKL4cpKgGOA9foYt6GwIArnnn4z0SazTFshwPLKkyyxJASEhd5R7hwfcIJUoIKQk1Bdv7hU8Yr2fZkpR1jeapbEOwDMXb7xNVlSm+oYmhLn8r674RqnFjc9J5vUnNrNu3c9emfTtPWucEAE0GZ38WpzhHbJ4WtwzNiC+ZzHukaS0CpDAgu/fwqIz1usYlgLcBKlBIDHqv6AAmB0qg9uYhlyeJSn086/SHmypqwgBnCaEZ6gjWhEDL2Sp2CgSMaNj+0dFtXIbpUHowkC8lixvKNRwIHIcA69CRgjnyMlIbMAmTZbOAeq5GDvWj8OcPJuypaZZ6RWAcklgG3acYzCNpy5hVdCrrjrXaVzOLFx4Q7m7BSuqgqmFcvWNHRuy17V7faPU/CZ/Zs0pXMKUkvdSAQwIuuMcMYLQiUtRoqVMH6c94FFDuimzS0o6UnHpCAAcLrYAkkYOX3RdJtSZiXWGORGZJoNx8Iz7a3ZmYDvj1M7a2MmTVYJjBTKuqxugmoIrSvhlwj3TT0rSi8XSyblK1ZjmXDG9vdwzF1I2gAlmolNVOdQBRjU3hzeB17USci7tdFTgDhoxFd+saaVlFC46S9U4RAuBM6q1z1IWlSyQpO4YpBOGDlxXQ5xba5/SCXMPaUClYNCFpoXGUORtCR3kP1Fdp2D9XtPrCq0Sgu0qWl7rA1NCtk5Y3ilQ/xMDqK99RBHTmdZh+gx/P59ZdImhQBESnzglBUp2AdgHPCF9onJlTGvdrEfKddz598MUlx5xnZjM56TPWm3qWoEdW72QMt51MOrFaBMS+YoRCe12NKZrX0pSaviRuYVJg5EyWluhSt81FusM3r6U74FQ2eYmsPuOYwsyUpmBRAOT/Lv96wfbgi4orICWqThCZW0EYKcQBtdRmBPXJCfynJ828IZnAjWO0EgR1sbaSZrpBJKaAmhUNSNW78YNtMgLSx5HQxi9nlQWFIdx4cY2NgtYmJdmIopOh+hxEQrZGDF1P4i8iKpdiKHvfXm8d2faig9GaJJ6hOX6eeXdpDe0ybw3j20IrUCWYZ4b8oFsLJJWocCPZMwLTuPusIrXYwbXUG6JNCKOTMOYxNPGDNn250se0Md4+b6wya8PIx34hIZRYuRM9PKpXZALnAk9/HKPQbMs1etjHo4DAjEXaMTstkvRwnjU1qoh2SNREkTVkEGgJqxx5kuzZQSJCgaS5gIyZyODYiKfw08l+gKQ9Q1SODsIXXRZYx4+sofACCzEAgJCs9MeVX9IR2hbWqlAlkd446q4RpJtgmnrKlqQkOdWatd3DTuxInEuvMkq7y8aaLUjA19uufP8vpJqUmaWbeSAQu4dymPdmOTQZYr6nvlroZmZzqeULpexZ/aCCGZTuOTVh0izFgspW47V4aAsScIH2mgOHUgnvj+feJdD1nJqlqCShne6Qc3IS78fOA/wCICEIRIlpFSVKJzYAAf+RgjZ6iUpYEssLNKEAuz6ux5Qo+MrQZ1pokgIQE9Y5l14ZdoQvSKUqLeZhUFerdZrdg2ZC7OhZdSlpClKON5mIByAIIaAdqMgnMJNd4wLvugL4X2x0cjozdBClXXOvWw3Enwh5YbOZl5S63gWORvUMaX4q23HgidaqswVRMpaLPKS3RuhyHrSpoRUkVMalO3VnBKN1Sfo8YbaFpWWCglKgqoTgCDT68zDOcq2zCFJlJqLw0Yiih16UihQhwfewfrNDUez7qKUcnls5+Hl9pRtRSxKmzUkE3iTTC8oh69zQf8H7OM+QlalFqvQNeClJCaYhqnjjWifawUJSUTEqSq9VKS5JGZwfhk8aj4EWDZkpReAQtbvqTeIoT81BDUDLgE89fWAtDIgJ7xftazzpC0ovFXSqABfEg4KfAuQcWx0pDbGy5yEi4CbyQFFGIW5q2JDqpwrDH41tTJloSHmdIlaSxYXXFSNTkK4wJLtVrBTMmoeWZnWSA5SCGCkjG4CXY1dO94vC1mAPHf1kinAJgn4SfdBAJXmml4dllKrUlsAaU5DykzDNAUgpKaM9Xah3G6RyAjYGXdXeJATU4bgDXSFG12BE10haWCg+IxSXZrww3jgIQ9xZCMCWNKKktBsP+ZlZ6STmNX84tTPmKTcSVMKUz3EjKPWy0JvKDB1ElhriSd0Ll2idUJURuTTuIrGXXUB0ihUqE4j6w7Mp1nfRPnFlpkhLMSKgYvzaM6TNAAvFyHe8cIefDdvmTJKwSFFGBONTmdK84Nk4zDB5xK7Ss4FtQ5y88olZa5h9HHphCba0y/NUxID0bvq0QFnIL3SC3s1iPD4hbuZpJc24/edPe+JJtolqExLuaKTWqcfDEHLmYQ2e9kojcXbuyg8ryWwUcWrx38oWVIkN04m0kzQoBSS4NQfecC2yyO5FHx7sYUbKthlAlZHRk4v2T83DB+/KNFejvxDmLA3r7wmftCLrdH2gXvanfuybfBtithJBZkmhHyq0O45GIbU/lhwl7xYcdDCbYdrUVTL1euruSq7d3M1IAnEHxFQ7Zotq2DpkgBV0g4s7jhHoUzNorlkpvUxSq67g5VIYiPQWYxqFY5MZL2msKC3YKpXXEH7d8e/8AXlJ9t5QrlDpbOKtco51Fe9otlSkqQFBL6qVQPnSNEDIzBuqNVjIexl+2viFf4aa2aSnD5ur6xn9sou2iYgIShlkBCQAAMm4ir74NJSZ0hK1i4JgUqjBkkHnXyiz4rKJs8rlqBBQHIeqg4z3NAswEQXUd4/2JbxMlJvEgh0moYVJFSXjtutKeiVdW5IbGMAFLQcaHuxoaw3sM3+WSo1mKLD+kORyJPdCbnxUfjFOSU4mi2GkGWXUUsRrm/wBIy1pmXpi1YgqJ5A08Ghmbb0co6qFM6iuv1hJJOA90r5tCkbNSiVyfcUR18LSyJ5TeIStJP9ycf9pV3RodrWroJLOekLhOGGau4tzjK2GaULRMGAV50I7iY5ta2mYok6MOAw974b4pC4m/7E0h1Nm5/wAK9fj5D+doqtCutG52AoGzSpjDqXkq7WCSdKdmMDMVWG9j2z0VlmynIvqSxAdge0Wz7KRziamwZu+16/Epz5EH9IP8QOsv2gXdjgXKnLEFqtpV8odfBFonpCm/0LxJdIPWZIDE9YOBgHAusIy9lnrKqkK0UltcCBhGg2btIJQWqFKF7eBgGOBY14w0kMSx4PlMK8YrBA46TXTtoj5kJ1Yu3+RDQFNtKS/8wn+lQHhf9c4ukbXl4JQpLbw3J4JO2hvjNOv/APP8+kzWq3dST6zMbSmJBSQSXdNVISKh8QVKOGTYwntlpJF9SAGABFS5GRKqnXSkbe3bTR0ZIYHEDUggx872pNUtd16Cp4n34w+vUeMu3GPXt9odVSrziRlS3dShvrjrHgakAFjU4logXCQo0TQAnjVvLmIQKsilzwrpikCqSHvDcnId8OUAmObgTV2dwrq3VMagiopvi74fpKtJ1UNK0JIHvKFs+clSwMHL99TDKxi7ZJqtZhbgw+vhAMOJPeL1M5D4q0x9YIVLugqWpTJGODcXiuzpJW4FQHHpzdoEtNtEyUqRMerVzBD+sTjMiE2PaUpd4BbvqxrvIi5VkdN5KgWOWXv6RnNjWOXLmdZRrqCmnLGNPZrSgy5iUEm5dIOoNC3AjxjnXb0nKc9YVYVAqCFpd6CrVwxYtWnODJtlKCwnTpVCWUosAN5cNxaFctym9orzENpO2+qy+s9GP3gFcLwRkRw3EYB+oz/iUWv8UkMqYFJN1r6QA5NGUA2ObwJIVOlikh3JqKmqiTUPm8aKyy5UwGYkqlqZKjdNC7g3kmhwesWIsKwkAALqQ8o3S+J6h6p1o0S4rPSVV1FZbFyeq/sf3mRFuDlK0qId7pNQTix0OYjkamaMlXFNlMFxQ5KoeIMehe0S+p0xHFo9QYi2Ta7hNAXFHyP7RcgqKyDgajSFclbF4fzrMVJC0VbrCgz3YDnFupuMS17coxYLR0P5j+0X2hKAq6STMJ6qUgmjOVHc7j+08YLRsuYUvQbjj5Uhr0lmllV9R6Wl4pBVlQOAxxy1ihe1pY+bu+8d4VZJ3OBPMvU5OQpmd2vK6MISpnclwcE0oxGpd4En2khUsZIDcyXUe8mGu07ZLmOwqnB28xwjN2guTAOq8AHInoPZOlIqa2xeeQP1P6fWaa3yCuWkJDkKfwMDyrBMobhcjw4Y5ww2Gq/KzcBu77Vhp+HKEKnTOqwuoTrnXQk9wELpoJrJ3AYOJgtpbPH8FRk5x94iRMKUFJGJeoqKNyendAE9UE2ma7k4mAZpgBPoui0i6TTrUPX4n+faDzDnElAEF9NH7w4fviMXyZV4gM4OPDODEG6surL5wYSBLlqW9VUFCGGZrU6ct8FWKYLmdQPBx5EQFtea7JFAKAaAe/CHXwOEKnJStqpUBxAvU0ok9whw6Z855zVEDdSvRQPrnn85p7NOUZaaLZhQIAGGufhA09BUWYw3XZ0XiQEhsyop8E1PMwTKkpJZufv1jCu9ywj4zLmTt1iMsJUou5YDk8Z60pCVsKk1J3vhuGEan4utCTOlS0ENLClTNahk04xl5ZvXgcde+LumztzHKPdlu0LOZkoFBBIUXD6tgNGEIU7NmguQEs2J+7w0s6iHqxf3hBkyXeDuScTv9vFtSRxOIzAbLZEpGZUqhUchn4Yw6tablllD8qheI/qJU/dlugQSv5gBLuAHz6zDnjDDbYKgorwcBAA/KkUYE4EF+cR1kdIvs6QEOMyBeJwKQ90aUI7oWW7Zilm8CEknLA8Q7iGWzUhi4F4VBVgKtnnFM609YggGpweukEAQeIORFS9mTB2inXMwbs6RcZi1Q7vlwg+daAoAvjzw1jnQ3SKu4eme7hhEFuOZOJclACJlWDgjCjP75QvXaAH4OK6iDrQjqFJqGr9IQqUkNLCbpSABVwU4A1qCDRoAcmGDiaixzKKAVjcA7/vDOyWlSGIIe8VAh8xdfu1jObOd2c9vwCX9IcSVOQBofAgQuwdRKYUbgT5x6vaqzQpSpvmAPnHoEnoIwjkZ4JHSFgTISFOAY0mxVhcsoNWo25Xs+EKrfYwhKCkUIu8057yQfCLNiTymYP1UPPDxaNQNnkT1W9NdoA4+fqI9Rs6SMJMr/BPHMRP8JLcES5YIN4MhIqQRphXDBwDlF0B7WtFxBbFVB6n3rHb285hVUG1wi9TM7tu0JKjdYJfAAAYuSw1LmEZMF2tcLzMDwxQZ6S3bUAi9BxNR8L2q7MKfmHoR5E90MttbRVMLEhk4NrrGR2fabq0q0I7sD4Ew3tMwpVdVQ5aKGqTnwxHjAsCPWK0ddJ1ZsPUjj59D9h+crWXwgVZhxsqzu8wiiaJ3qOfIHvIhZteQUT1Adk1HA183HKFBgW2x59pI2rOmXkgZP7emQYMIOlJuoc4ny91imzSXNcM47a54fC9okv1joWZhmajBs4NRk4lq+5aKjY3aKLXeUStjddnYtwfB90Mfhy0iXOQpVA+PEFPrA1oSuYQVqwwAAAA0SkMByEWykAENkX7v2ixvHQTxeltOovYA8sDN4LWFK6lwsKk1bvDPzhlLtND1hho32jMTJJABAoK5Yc0qfgGNcdapm3SKJCuIS/8A+hI5hoqPpVtbf+0rlbc4USvacodOsgkmYQTnW6E3eDJfmYBXLCVUqSKgZUwi6z20zJt9ROQq2Tj8tIvNjdC5gpi29qnkB4wJGxsSwWCIN8SiUScWHn9vpBcsFyN2sesaCsjSrcffnB0iyBKSVVL8CXD07odunESvY0sKndbAAqPAD9o9tC2BaHHzlVQQySwSDyAoIt2cQlM5agSOiu9Vn62e6rDnA1tlpMi+MSsBQ0wrwJMHWM5MFjiD2OSQXUcwC54EUzeK7RdvqIw984NSspCS5qA9NB7xivonDZ+8ojd3MHEEkSiaEFsu7CkFSUMyrxTdIG8uDhyEcll0sz5NQVg/oelmq+UAaaDTdAlueYYEr2kyUJriHJwxPnGV2vMZSGLU0fONJtmYDQVGHIRmNoyxeD5UqW1MFUuXkPnHEcfDs8kqJIISCcCMTv3JMEfDVuMxbFuw9FPioHSBdlywmyTVijuHvPuo+HbMX/C9mCZiiL3YArdbEHERLoMMcSuM5EeS9shQqhXIp9VCPRLZGxrLIsaZ8+UJilrKReCgyQ7dUb0kvvj0JGlU9JAV/OcnSCuzqbFPWHKp7w45xDYlkSEiY94nClE5U37/ACeGGy6hq+X7wJsoXFzZB/Kp0/0n2O+E0tyRHeydQx09lIPT3vQ8H9Izvxm9s2u+stgKD6w52pOuIJzNB9e6MlaJkPHWek9k0bQb2+Q/X9vrALbNygJJgm0IJJgdUtosrjGJU1ZsNpftCrPgeEbjZgTOkJStIV+VQIcUwd9zRhbOaGN38MySiUqYqgOD6JFVHy5QnUPtXMr6q5F0hsPUYx8Tk/5l05KUBMtAZKati7vmTiSXr+we39mzJnRqlBBIBCrxu4FwzA6nwi2ao3lVchTgfpy9YZWpzJU2N1/r4RQVsMCZ5v2fqHr1aOGwScE/Pjn6zLdlNcc2L13HOASp3O+DQCtd3JnJ0AxMDWuQUG6Wceow4xcOZ6j/AFNqwqLp1+Z/T69YIYsSGI4RXF6hgYkHBmJ7FbGtT1/IzWbNLykHc3MU9Iot0uShJM1PV7gDpSO/Dsx5ZGivMP8AWD7VZ0zElCxeSoMRuglYqczVuzVcwHnMzs9MufOaSGQcdwAqfeZjRKQm+lI7IF0bh784p2DsQWOUpIVeUtRJUR+V+qnux3k7osk9p4p3OHckdJ5vW6o3WcdBEEl0PqCQcq1HpE+lCgRXq4bwTXHP6RZteWBOUkZm93183iCpZTXEYEYPrFhTkZmwr71DecQq+J0ylTZSknr0vYMzZZiggW1/EcsC4hKllRZ8mBGlXpGjmbGlzVXlIpvPhxiqdsmTL7KACN7+UOWxRIKsZyxLKkJUtJSflpRjSueMHdDVThgWugHJmfDdAomgulRYNS6PQNFiJ5CcQeONNN1fCFmSBzOKDJLAnU5aNxhtImgC41UjFmrm++F9kldMwPZHWfefs2EE24XUkg1fHh784EDJxDzEe0pnKAgL13l5RK1zL0Rl4pG8CLenHvZjae5+EPtckCyJQ3aqfFXm0XfD0m7MmUAADU/tMWbaT2U6JP8AxHpBey0VWd//ABTEv/sk+efzilAyYx+LGlyrLZy/UluakVoK1rUKj0VfFKektCyfysn/ABx/3Ex6BU8SwlY2jIl2zlkpcUwgbbf8udKnDA9RXmPM/wCMS2GskEHKDNs2TpZK0gdZnT/Umo78OcZQOx5532deKNSpb8J4PyPH95ntrWy+rFwKD6wrXBdvsypZrVJwVvOR3vhrxgNRi5jmfSqLKzQor6AQdaBjnAy4MiN0Au2UMVpR1NYK+Qk9ibPVOmplij1UdEjE+nEiPoNvmBCAkAAdkDQYD0gP4X2f0Uq+oMuYAa5JyHi/PdF+0U3hvGEUL7d747CeH9q6oW3bEPurxFiJB6UK1QyuIYjw8odWEAp5MffvEwoTaCwyL/XDnDiyPdD5wL5xzM05xMvOK7OpLdU9I145gKa6aHq3XUdzaQLtVJ6RZKWBUSKUYmgHLKNPtEIKriqlYIAOYwIHLLfFM6yrY9UsMXjQ2FkUpLuq1r6p99nUzHpx95wQoQ4lWRBrcFTpy9PGCNrSLkrssxFPCONNgI4jfZtoTV1n4j7wXYE8JKgSwI8R+8aaxsrrAggecZfY0hRmgJyz3ftGvmlgw0itfZt4HWav+oNQq2bUPJA9IJblaY+HP3rAkgVjs2c5OkekprFYDE8tFfxTLCVy5jsCCknhUeZ7oS2jaolgX1lLjmRhRONfZjT/ABCf5TsFXWLGu6MvtWxyLQ02aFpUzG6SMNAQRFykjABm9o2JpHwg0/4vQ4CJJV/UpgeIT5PAVo+MFrNZMth8t4eJJi+d8MWYVSueaZ3A27AmBZPw7IYOqZezDpAfQFothUxmOJaSHxMlQZSSkg40I8ADDqxzjMQkhRUnJsNCMHFdYHs+xLGl/wCSVEB3WtR7wC3hDWzLllHRpHRhP5ZaWFcmz8c4UzL/AMRDAPeNtm2L+XdvpScy7GnAbo7tDYapgCUz5QbEqUf+sCSEuaPl5QSJcAvEU1hBxAZfwevO0Wf/ACOHdHrL8MF0TRaJC0ghbJUXUBkHA8YJUhmA4aw22Ts+QzKyGGlKBsBDQ5HSStzAYEWW74fXMN7ppAF1mKi4wxYEYg98E2bZJl3iZspT5Be4DMDSNDL2ZZlUCUnP33xK17JR0aujQHagDCsFuJTb2kC1pnbZZQCVKnSgSXLrzLnSPQP0ZSWNMcaEVoG94R6A8QiO/qXlWxXctu9e/wC8N7PMclh1Uhscyz8WaEVkkqfqkgHSH9jlhKQnTHnGfZjrPNNKJsgFwRQ+RhRbPh1CuwSjc15PcSD3EQ/mYxUTFmp8qDPSaTUsawwPzmWX8PzgaFCxxKfRUG2DYKlTUld0oFSHJPDBqnweHRVB0tN0b84G63avxMnXe07Vr/FyeO09OWGeF1oOMW7QLoLY490LpFqvFjj5xTVeMzy4GeZTax10pFAa+QMNpU4VqOUL5lmvKQkZu5NS3s+WkdslBTB4fgECM4IjOyIC1hasZalN/ckAwfODgg4GkL7GSkqGZAUdxL+giK9ro0PhFigFshe0ZU4HBnbPY0oLY3cCeEFbQYoS7EP6GENm2q14qBLkkbnygrZlqM9b4JQGpgSfflFmzKEu/aH4ypgiHyJTVzP7x61zWBi5ZFPDu990A22qWjJLF2yZWew2PubvF0qbfDjU+BaDpZYQNYpQSGGtB4wZLTBN1nMeYLaUX3BoCkgc6PGB/EkFm6wxdsRSvOPoYkkrD0LRg/ieWJVsmpwvG+OC6/8Ak/dFukj8M0tFZg7Zci0qbJz5d0TkrUiqlO5oKU96QsE/ifSK0W0s7cHh+OMTSzG063OSxYwvl2xQLvWBVTw97M+cUmpqaEYD1jgmJxabvYloCpYNav5w1YnNhpv9+cZDYm1QiWkM4A4Ykw6G3Et2T9oSeDiJYE8w6ayU6BI7h9GgS12haQWJ5mBztlBaihTBn8YHn7SlqGY5fT3WCBnbTLpW11IUCF1GNY3+zNqJmSwsM7OwO5yO6PlH4iXef0MaTY+10JSkXiMfBX38YnIE4qZqdryekUCgsrlUfanfHoz87byGHXOWAPpHo4kSQDC7IkCgg9CffOAJRg2WYzTPPyNoNDA7RfaDRtae+URIizp84mroM7D5SEgAqDjA+OsFWiaBlm33ga73RydOIBvAkfMKt/UBVt456xF9ZYgiDraXfDCcmzRg/wB4AtSbxBFFDD76iO3qullA/mSQREgtqk8YUFx0maBiWpUyCoi6QHPL0pEtnyqB8g59+8IBts/so1NfRI3kiGyklKWSKt6P50pE9B84WMCdlDtKzUfIMPAQLPsyFOWD5xYqb0aBfPWNWGZ0G4UHKKLKu85ar+xDKFbcSOks6MHeSekBm7PGkO9lSwmWAOfGr+MUNE5Cynhp6iG3ozLLOqq8RMLC1H3zgeZHpinqkt7z0gNc1YyHd70ikqzJCmd6Mk6Vc8jBkuBJU4nLxi3pCNBBkGSYSB1huHr9oznx5sfpEdOgfzEJqM1IxI4pckc4bybT1n0i3a1ou3BmT4Njww74bWSjiP0xItExX8OLFKnTpvSoTMSmWOqoOHJxxxp4xsLZI2dKUlKrCmod0igAITXrPioCjwv+FNmiRbJzBkTEBSdzK6yeRNNxGkPdrIXeBlqlJF1iJjN2gQWul8DnGrVtZuZquSDFYGxyayJQ+UlMwXqAm7wBD6cIIRYNlEXhZkgYglM0OKVDjCsWWOzTAQlSpCgxZkpoyVMR1e09x8cDQZ1WaRPcJ6Szrf8ASOtjTsUphw5RYNdfb+faBuaFWbZVgUyEWYUH6wAAAc2yUn/IRh/jJSJFqMuWi6m4lTOTUvrwjfWCzWhKh0ipRSzEpSyiGo5atW0j59/EEf8Avzh/pI/5RVtRI6nluYqNuBah74pXbN3j9o9d3ZeOmERXJZ90VwFlvavlKzajoIOsVvbEYAwsBBLNB9nkdU76chiYJguOZxUS07RoAEgR6KhJqaR6IwskIJ9DlrOQVzSR5gQQuepIHV793D6x0k6xFic4reEsy10SDrzOWV1Kc1MGCKrIhoKCIYMCW1UAYErYRy6Ym+G/6P6RNomTiVLs0tWKeeBrvFYHtGzwA6SoePmCYNIiJESSD1EBqUbqJl1WC0AuDKLFxelGh+YdfHfBCJdoPbmmmSUpSD5nxh4oY7gD3xUEgxG0eUD+mr8oqTZCHOuJLk8yawXY5JEEFEcQYNGI6QzWuMSYRuMRdsYtTMgWbanXdbDfueGBt3GIJTHOZYtIOAL6jHwisyZgwIVuULp7wCPCLJM+mEdXa2/L4/aE2VLnGJBoSwZcQUyirqqlkA5ghu8EEd0Wqs7NTs4ZkUah4RwW8H8vj9o9Mtzh28ftAioCL/oq4IoTEqdKUcVFR/2hvOOplKJKlqvKOeFNAMhFxtA+Xx+0VKtgH5fH7RITngRtenRDkCMrKvA5wSuYq+ghTJHaDO/h9IRDa4T+R/7vtDvZcwzZYXRIchmJwIGLj5tMosVHBwYVi95aha3/ANRLf/WX34Fnj1+a3+ojj0Z+rQT+GV8ycflOv9UdXZlY3k4P2T/2h+8eX5ROJxE+gvFzmQCByEfK/wCI6x+NJCm/lo9Y+ppsyqC8mv6To/zRndv/AANLtU4zFzVA3QOqMk8SYAkQ1O05nyxFpUA14tElTiaPTNtfWN9Z/wCG9nIczZuLfl/6x4fw5s5LdLOx1R/1gdojvFmIs90JbVnOf7QSi18APSNef4aWcf8AzTv9n/WOp/h3JBYTpnMJ9AIA1g9ZHizJ7Os0ycSJaSc2A5V749G+svw4mULqVluA8Y9EYheKZ//Z;shadow=1;shadowOpacity=80;" vertex="1" parent="1">
          <mxGeometry x="76.20999999999998" y="172" width="262.79" height="219" as="geometry" />
        </mxCell>
        <mxCell id="VGW-gERCkuLHL1JLUqx4-51" value="" style="shape=flexArrow;endArrow=classic;html=1;rounded=0;width=11.515151515151516;endSize=5.624242424242424;endWidth=8.172635445362719;fillColor=#000099;" edge="1" parent="1">
          <mxGeometry width="50" height="50" relative="1" as="geometry">
            <mxPoint x="969" y="529.2128571428574" as="sourcePoint" />
            <mxPoint x="919" y="529.2128571428574" as="targetPoint" />
          </mxGeometry>
        </mxCell>
        <mxCell id="VGW-gERCkuLHL1JLUqx4-52" value="" style="shape=flexArrow;endArrow=classic;html=1;rounded=0;width=11.515151515151516;endSize=5.624242424242424;endWidth=8.172635445362719;fillColor=#000099;" edge="1" parent="1">
          <mxGeometry width="50" height="50" relative="1" as="geometry">
            <mxPoint x="726" y="529.2128571428574" as="sourcePoint" />
            <mxPoint x="676" y="529.2128571428574" as="targetPoint" />
          </mxGeometry>
        </mxCell>
        <mxCell id="VGW-gERCkuLHL1JLUqx4-54" value="" style="shape=flexArrow;endArrow=classic;html=1;rounded=0;width=11.515151515151516;endSize=5.624242424242424;endWidth=8.172635445362719;fillColor=#000099;" edge="1" parent="1">
          <mxGeometry width="50" height="50" relative="1" as="geometry">
            <mxPoint x="1309" y="529.0028571428574" as="sourcePoint" />
            <mxPoint x="1259" y="529.0028571428574" as="targetPoint" />
          </mxGeometry>
        </mxCell>
        <mxCell id="VGW-gERCkuLHL1JLUqx4-55" value="" style="shape=flexArrow;endArrow=classic;html=1;rounded=0;width=11.515151515151516;endSize=5.624242424242424;endWidth=8.172635445362719;fillColor=#000099;" edge="1" parent="1">
          <mxGeometry width="50" height="50" relative="1" as="geometry">
            <mxPoint x="1420" y="430" as="sourcePoint" />
            <mxPoint x="1420" y="480.00285714285735" as="targetPoint" />
          </mxGeometry>
        </mxCell>
        <mxCell id="VGW-gERCkuLHL1JLUqx4-56" value="&lt;font style=&quot;font-size: 20px;&quot;&gt;\(\text{Disparity Map }\mathcal{D}\)&lt;/font&gt;" style="text;html=1;strokeColor=none;fillColor=none;align=center;verticalAlign=middle;whiteSpace=wrap;rounded=0;" vertex="1" parent="1">
          <mxGeometry x="1040" y="650" width="170" height="30" as="geometry" />
        </mxCell>
        <mxCell id="VGW-gERCkuLHL1JLUqx4-57" value="&lt;font style=&quot;font-size: 20px;&quot;&gt;\(\text{Disparity Map }\mathcal{D}\)&lt;/font&gt;" style="text;html=1;strokeColor=none;fillColor=none;align=center;verticalAlign=middle;whiteSpace=wrap;rounded=0;" vertex="1" parent="1">
          <mxGeometry x="450" y="650" width="170" height="30" as="geometry" />
        </mxCell>
        <mxCell id="VGW-gERCkuLHL1JLUqx4-58" value="&lt;font style=&quot;font-size: 20px;&quot;&gt;\(\text{Epipolar Images}\)&lt;/font&gt;" style="text;html=1;strokeColor=none;fillColor=none;align=center;verticalAlign=middle;whiteSpace=wrap;rounded=0;" vertex="1" parent="1">
          <mxGeometry x="156.39999999999998" y="430" width="170" height="30" as="geometry" />
        </mxCell>
      </root>
    </mxGraphModel>
  </diagram>
</mxfile>
